<svg width="137" height="132" viewBox="0 0 137 132" fill="none" xmlns="http://www.w3.org/2000/svg">
<ellipse cx="68.5" cy="66" rx="68.5" ry="66" fill="white"/>
<path d="M68.4997 45.9291C72.2213 45.9291 75.2372 48.9449 75.2372 52.6666C75.2372 56.3883 72.2213 59.4041 68.4997 59.4041C64.778 59.4041 61.7622 56.3883 61.7622 52.6666C61.7622 48.9449 64.778 45.9291 68.4997 45.9291ZM68.4997 74.8041C78.0284 74.8041 88.0705 79.4882 88.0705 81.5416V85.0707H48.9288V81.5416C48.9288 79.4882 58.9709 74.8041 68.4997 74.8041ZM68.4997 39.8333C61.4093 39.8333 55.6663 45.5762 55.6663 52.6666C55.6663 59.757 61.4093 65.4999 68.4997 65.4999C75.5901 65.4999 81.333 59.757 81.333 52.6666C81.333 45.5762 75.5901 39.8333 68.4997 39.8333ZM68.4997 68.7082C59.9334 68.7082 42.833 73.0074 42.833 81.5416V91.1666H94.1663V81.5416C94.1663 73.0074 77.0659 68.7082 68.4997 68.7082Z" fill="#8698E9"/>
</svg>
