<svg width="27" height="27" viewBox="0 0 27 27" fill="none" xmlns="http://www.w3.org/2000/svg">
<path d="M18.5849 16.2563C19.1266 15.8581 20.0733 15.2314 21.1575 14.9129C22.5687 14.4984 23.6591 14.4075 24.9262 14.8016C26.1933 15.1957 26.1194 16.3083 25.8826 16.7051C25.6457 17.1018 25.6754 17.2319 24.8523 17.3523C24.0293 17.4726 22.1266 17.1597 21.3027 17.2763C20.4789 17.393 19.3168 17.8305 19.1145 17.8997" stroke="#6984FC" stroke-width="1.5"/>
<path d="M16.8934 9.06486L18.5321 7.26969C18.6315 6.99543 18.994 6.61146 19.6495 7.26969C20.305 7.92792 20.9655 8.54127 21.2138 8.76566C21.4372 8.96512 21.6607 9.51365 20.7668 10.112C19.873 10.7104 17.6992 12.4186 16.3584 13.5156" stroke="#6984FC" stroke-width="1.5"/>
<path d="M13.8198 11.7814L15.4585 10.1359M1.37994 25.7688C1.1813 25.5195 0.843619 24.8413 1.08198 24.1232C1.32035 23.4052 4.55821 14.6986 6.14734 10.4351C6.29632 9.96134 6.83264 9.04381 7.78611 9.16349C8.97794 9.31309 12.181 11.1083 14.1177 12.9782C16.0544 14.8482 18.5871 18.4385 18.2146 19.7101C17.9167 20.7274 17.4449 20.9318 17.2463 20.9069L3.16776 25.7688C2.79527 25.9433 1.91621 26.1877 1.37994 25.7688Z" stroke="#6984FC" stroke-width="1.5"/>
<path d="M6.87109 11.9382C8.2119 12.3122 9.77618 12.761 11.3405 15.0798" stroke="#6984FC" stroke-width="1.5" stroke-linecap="round" stroke-linejoin="round"/>
<path d="M12.9043 16.5757C14.0216 17.3237 15.3922 19.5826 15.8094 20.8392" stroke="#6984FC" stroke-width="1.5" stroke-linecap="round"/>
<path d="M4.33789 18.8196C6.05115 19.7421 7.39196 19.762 8.58379 23.2327" stroke="#6984FC" stroke-width="1.5" stroke-linecap="round"/>
<path d="M9.70147 8.26622C9.85045 7.01957 9.98453 4.60078 9.32902 3.404C8.67351 2.20722 9.30419 1.3595 9.70147 1.08524C10.1981 0.81098 11.8308 1.18202 12.5459 2.43863C13.4398 4.0094 12.5459 9.10279 12.1734 9.8437" stroke="#6984FC" stroke-width="1.5"/>
</svg>
