<svg width="38" height="38" viewBox="0 0 38 38" fill="none" xmlns="http://www.w3.org/2000/svg">
<path d="M5.56641 38H17.9609V24.4922H13.5078V20.0391H17.9609V14.4727C17.9609 11.4033 20.458 8.90625 23.5273 8.90625H29.0938V13.3594H24.6406C23.4128 13.3594 22.4141 14.3581 22.4141 15.5859V20.0391H28.8928L28.1507 24.4922H22.4141V38H32.4336C35.5029 38 38 35.5029 38 32.4336V5.56641C38 2.49706 35.5029 0 32.4336 0H5.56641C2.49706 0 0 2.49706 0 5.56641V32.4336C0 35.5029 2.49706 38 5.56641 38ZM2.22656 5.56641C2.22656 3.72485 3.72485 2.22656 5.56641 2.22656H32.4336C34.2751 2.22656 35.7734 3.72485 35.7734 5.56641V32.4336C35.7734 34.2751 34.2751 35.7734 32.4336 35.7734H24.6406V26.7188H30.0368L31.5212 17.8125H24.6406V15.5859H31.3203V6.67969H23.5273C19.2302 6.67969 15.7344 10.1755 15.7344 14.4727V17.8125H11.2812V26.7188H15.7344V35.7734H5.56641C3.72485 35.7734 2.22656 34.2751 2.22656 32.4336V5.56641Z" fill="white"/>
</svg>
