<svg width="51" height="38" viewBox="0 0 51 38" fill="none" xmlns="http://www.w3.org/2000/svg">
<path d="M4.68784 38H46.3122C48.8971 38 51 35.9334 51 33.3932V4.6066C51 2.0664 48.8971 0 46.3122 0H4.68784C2.10293 0 0 2.0666 0 4.6066V33.3932C0 35.9334 2.10293 38 4.68784 38ZM3.05304 4.6066C3.05304 3.7194 3.78597 3 4.68784 3H46.3122C47.2144 3 47.947 3.7194 47.947 4.6066V33.3932C47.947 34.2806 47.2142 35 46.3122 35H4.68784C3.78577 35 3.05304 34.2806 3.05304 33.3932V4.6066ZM9.10579 32.8784H6.05275V5.2488L25.1188 17.4118C25.3431 17.5548 25.6567 17.555 25.8816 17.4114L44.9474 5.2488V32.8784H41.8944V10.7732L27.5437 19.928C26.9347 20.3162 26.228 20.5212 25.5 20.5212C24.772 20.5212 24.0653 20.3162 23.4567 19.9282L9.10579 10.7732V32.8784Z" fill="white"/>
</svg>
