<svg width="927" height="761" viewBox="0 0 927 761" fill="none" xmlns="http://www.w3.org/2000/svg">
<path d="M215.384 224.325C201.392 118.23 59.9678 20.8793 0 -8H930V753.833C580.188 786.262 629.661 699.624 365.304 673.488C153.817 652.578 154.584 534.738 181.402 478.431C198.56 437.936 229.377 330.421 215.384 224.325Z" fill="#8698E9"/>
<path d="M411.035 79.5404C411.303 78.5577 412.697 78.5577 412.965 79.5404L414.718 85.9732C414.836 86.4083 415.232 86.7102 415.683 86.7102H421.682C422.608 86.7102 423.037 87.8599 422.337 88.4661L417.198 92.9177C416.907 93.1694 416.787 93.5655 416.888 93.9364L418.777 100.87C419.037 101.823 417.904 102.535 417.158 101.888L412.655 97.9877C412.279 97.6621 411.721 97.6621 411.345 97.9877L406.842 101.888C406.096 102.535 404.963 101.823 405.223 100.87L407.112 93.9364C407.213 93.5655 407.093 93.1694 406.802 92.9177L401.663 88.4661C400.963 87.8599 401.392 86.7102 402.318 86.7102H408.317C408.768 86.7102 409.164 86.4083 409.282 85.9732L411.035 79.5404Z" fill="white" fill-opacity="0.3"/>
<path d="M416.535 169.565C416.801 168.58 418.199 168.58 418.465 169.565L418.984 171.48C419.102 171.916 419.497 172.219 419.949 172.219H421.964C422.888 172.219 423.318 173.365 422.621 173.973L420.696 175.651C420.408 175.903 420.288 176.297 420.388 176.666L421.047 179.101C421.306 180.055 420.17 180.766 419.425 180.116L418.157 179.011C417.781 178.682 417.219 178.682 416.843 179.011L415.575 180.116C414.83 180.766 413.694 180.055 413.953 179.101L414.612 176.666C414.712 176.297 414.592 175.903 414.304 175.651L412.379 173.973C411.682 173.365 412.112 172.219 413.036 172.219H415.051C415.503 172.219 415.898 171.916 416.016 171.48L416.535 169.565Z" fill="white" fill-opacity="0.3"/>
<path d="M517.535 70.5649C517.801 69.58 519.199 69.58 519.465 70.5649L519.984 72.4802C520.102 72.9161 520.497 73.2188 520.949 73.2188H522.964C523.888 73.2188 524.318 74.3652 523.621 74.9726L521.696 76.6511C521.408 76.9027 521.288 77.2968 521.388 77.6662L522.047 80.1008C522.306 81.0551 521.17 81.7656 520.425 81.1159L519.157 80.0106C518.781 79.6823 518.219 79.6823 517.843 80.0106L516.575 81.1159C515.83 81.7656 514.694 81.0551 514.953 80.1008L515.612 77.6662C515.712 77.2968 515.592 76.9027 515.304 76.6511L513.379 74.9726C512.682 74.3652 513.112 73.2188 514.036 73.2188H516.051C516.503 73.2188 516.898 72.9161 517.016 72.4802L517.535 70.5649Z" fill="white" fill-opacity="0.3"/>
<path d="M497.033 218.662C497.295 217.669 498.705 217.669 498.967 218.662L500.722 225.311C500.838 225.75 501.235 226.056 501.689 226.056H507.745C508.663 226.056 509.096 227.189 508.412 227.801L503.179 232.48C502.899 232.731 502.783 233.117 502.879 233.481L504.791 240.722C505.044 241.681 503.897 242.384 503.157 241.723L498.667 237.708C498.287 237.368 497.713 237.368 497.333 237.708L492.843 241.723C492.103 242.384 490.956 241.681 491.209 240.722L493.121 233.481C493.217 233.117 493.101 232.731 492.821 232.48L487.588 227.801C486.904 227.189 487.337 226.056 488.255 226.056H494.311C494.765 226.056 495.162 225.75 495.278 225.311L497.033 218.662Z" fill="white" fill-opacity="0.3"/>
<path d="M224.535 92.5649C224.801 91.58 226.199 91.58 226.465 92.5649L226.984 94.4802C227.102 94.9161 227.497 95.2188 227.949 95.2188H229.964C230.888 95.2188 231.318 96.3652 230.621 96.9726L228.696 98.6511C228.408 98.9027 228.288 99.2968 228.388 99.6662L229.047 102.101C229.306 103.055 228.17 103.766 227.425 103.116L226.157 102.011C225.781 101.682 225.219 101.682 224.843 102.011L223.575 103.116C222.83 103.766 221.694 103.055 221.953 102.101L222.612 99.6662C222.712 99.2968 222.592 98.9027 222.304 98.6511L220.379 96.9726C219.682 96.3652 220.112 95.2188 221.036 95.2188H223.051C223.503 95.2188 223.898 94.9161 224.016 94.4802L224.535 92.5649Z" fill="white" fill-opacity="0.3"/>
<path d="M279.535 177.565C279.801 176.58 281.199 176.58 281.465 177.565L281.984 179.48C282.102 179.916 282.497 180.219 282.949 180.219H284.964C285.888 180.219 286.318 181.365 285.621 181.973L283.696 183.651C283.408 183.903 283.288 184.297 283.388 184.666L284.047 187.101C284.306 188.055 283.17 188.766 282.425 188.116L281.157 187.011C280.781 186.682 280.219 186.682 279.843 187.011L278.575 188.116C277.83 188.766 276.694 188.055 276.953 187.101L277.612 184.666C277.712 184.297 277.592 183.903 277.304 183.651L275.379 181.973C274.682 181.365 275.112 180.219 276.036 180.219H278.051C278.503 180.219 278.898 179.916 279.016 179.48L279.535 177.565Z" fill="white" fill-opacity="0.3"/>
<path d="M232.535 573.565C232.801 572.58 234.199 572.58 234.465 573.565L234.984 575.48C235.102 575.916 235.497 576.219 235.949 576.219H237.964C238.888 576.219 239.318 577.365 238.621 577.973L236.696 579.651C236.408 579.903 236.288 580.297 236.388 580.666L237.047 583.101C237.306 584.055 236.17 584.766 235.425 584.116L234.157 583.011C233.781 582.682 233.219 582.682 232.843 583.011L231.575 584.116C230.83 584.766 229.694 584.055 229.953 583.101L230.612 580.666C230.712 580.297 230.592 579.903 230.304 579.651L228.379 577.973C227.682 577.365 228.112 576.219 229.036 576.219H231.051C231.503 576.219 231.898 575.916 232.016 575.48L232.535 573.565Z" fill="white" fill-opacity="0.3"/>
<path d="M714.535 88.5649C714.801 87.58 716.199 87.58 716.465 88.5649L716.984 90.4802C717.102 90.9161 717.497 91.2188 717.949 91.2188H719.964C720.888 91.2188 721.318 92.3652 720.621 92.9726L718.696 94.6511C718.408 94.9027 718.288 95.2968 718.388 95.6662L719.047 98.1008C719.306 99.0551 718.17 99.7656 717.425 99.1159L716.157 98.0106C715.781 97.6823 715.219 97.6823 714.843 98.0106L713.575 99.1159C712.83 99.7656 711.694 99.0551 711.953 98.1008L712.612 95.6662C712.712 95.2968 712.592 94.9027 712.304 94.6511L710.379 92.9726C709.682 92.3652 710.112 91.2188 711.036 91.2188H713.051C713.503 91.2188 713.898 90.9161 714.016 90.4802L714.535 88.5649Z" fill="white" fill-opacity="0.3"/>
<path d="M580.535 188.565C580.801 187.58 582.199 187.58 582.465 188.565L582.984 190.48C583.102 190.916 583.497 191.219 583.949 191.219H585.964C586.888 191.219 587.318 192.365 586.621 192.973L584.696 194.651C584.408 194.903 584.288 195.297 584.388 195.666L585.047 198.101C585.306 199.055 584.17 199.766 583.425 199.116L582.157 198.011C581.781 197.682 581.219 197.682 580.843 198.011L579.575 199.116C578.83 199.766 577.694 199.055 577.953 198.101L578.612 195.666C578.712 195.297 578.592 194.903 578.304 194.651L576.379 192.973C575.682 192.365 576.112 191.219 577.036 191.219H579.051C579.503 191.219 579.898 190.916 580.016 190.48L580.535 188.565Z" fill="white" fill-opacity="0.3"/>
<path d="M595.535 322.565C595.801 321.58 597.199 321.58 597.465 322.565L597.984 324.48C598.102 324.916 598.497 325.219 598.949 325.219H600.964C601.888 325.219 602.318 326.365 601.621 326.973L599.696 328.651C599.408 328.903 599.288 329.297 599.388 329.666L600.047 332.101C600.306 333.055 599.17 333.766 598.425 333.116L597.157 332.011C596.781 331.682 596.219 331.682 595.843 332.011L594.575 333.116C593.83 333.766 592.694 333.055 592.953 332.101L593.612 329.666C593.712 329.297 593.592 328.903 593.304 328.651L591.379 326.973C590.682 326.365 591.112 325.219 592.036 325.219H594.051C594.503 325.219 594.898 324.916 595.016 324.48L595.535 322.565Z" fill="white" fill-opacity="0.3"/>
<path d="M408.535 315.565C408.801 314.58 410.199 314.58 410.465 315.565L410.984 317.48C411.102 317.916 411.497 318.219 411.949 318.219H413.964C414.888 318.219 415.318 319.365 414.621 319.973L412.696 321.651C412.408 321.903 412.288 322.297 412.388 322.666L413.047 325.101C413.306 326.055 412.17 326.766 411.425 326.116L410.157 325.011C409.781 324.682 409.219 324.682 408.843 325.011L407.575 326.116C406.83 326.766 405.694 326.055 405.953 325.101L406.612 322.666C406.712 322.297 406.592 321.903 406.304 321.651L404.379 319.973C403.682 319.365 404.112 318.219 405.036 318.219H407.051C407.503 318.219 407.898 317.916 408.016 317.48L408.535 315.565Z" fill="white" fill-opacity="0.3"/>
<path d="M740.035 639.54C740.303 638.558 741.697 638.558 741.965 639.54L743.718 645.973C743.836 646.408 744.232 646.71 744.683 646.71H750.682C751.608 646.71 752.037 647.86 751.337 648.466L746.198 652.918C745.907 653.169 745.787 653.565 745.888 653.936L747.777 660.87C748.037 661.823 746.904 662.535 746.158 661.888L741.655 657.988C741.279 657.662 740.721 657.662 740.345 657.988L735.842 661.888C735.096 662.535 733.963 661.823 734.223 660.87L736.112 653.936C736.213 653.565 736.093 653.169 735.802 652.918L730.663 648.466C729.963 647.86 730.392 646.71 731.318 646.71H737.317C737.768 646.71 738.164 646.408 738.282 645.973L740.035 639.54Z" fill="white" fill-opacity="0.3"/>
<path d="M435.034 662.61C435.299 661.621 436.701 661.621 436.966 662.61L437.373 664.132C437.49 664.569 437.886 664.873 438.339 664.873L440.012 664.873C440.934 664.873 441.365 666.014 440.674 666.623L439.007 668.093C438.723 668.345 438.605 668.735 438.703 669.102L439.258 671.177C439.514 672.134 438.373 672.841 437.631 672.185L436.662 671.33C436.284 670.997 435.716 670.997 435.338 671.33L434.369 672.185C433.627 672.841 432.486 672.134 432.742 671.177L433.297 669.102C433.395 668.735 433.277 668.345 432.993 668.093L431.326 666.623C430.635 666.014 431.066 664.873 431.988 664.873L433.661 664.873C434.114 664.873 434.51 664.569 434.627 664.132L435.034 662.61Z" fill="white" fill-opacity="0.3"/>
<path d="M874.035 229.525C874.304 228.544 875.696 228.544 875.965 229.525L878.391 238.393C878.51 238.827 878.905 239.129 879.355 239.129H887.527C888.454 239.129 888.882 240.28 888.18 240.886L881.29 246.83C880.998 247.082 880.877 247.48 880.979 247.851L883.539 257.208C883.8 258.16 882.669 258.874 881.921 258.229L875.653 252.821C875.278 252.497 874.722 252.497 874.347 252.821L868.079 258.229C867.331 258.874 866.2 258.16 866.461 257.208L869.021 247.851C869.123 247.48 869.002 247.082 868.71 246.83L861.82 240.886C861.118 240.28 861.546 239.129 862.473 239.129H870.645C871.095 239.129 871.49 238.827 871.609 238.393L874.035 229.525Z" fill="white" fill-opacity="0.3"/>
<path d="M416 107C440.67 139.512 456.089 175.473 485 207" stroke="url(#paint0_linear_2414_568)" stroke-opacity="0.2"/>
<path d="M431 101C444 114.5 437.5 131.5 490 167.5" stroke="url(#paint1_linear_2414_568)" stroke-opacity="0.2"/>
<path d="M592 200.315C608.059 209.978 606.194 228.082 666.239 249.221" stroke="url(#paint2_linear_2414_568)" stroke-opacity="0.2"/>
<path d="M747.25 635.719C758.8 620.959 776.541 625.018 804.847 568" stroke="url(#paint3_linear_2414_568)" stroke-opacity="0.2"/>
<path d="M559.551 492.882L522.236 500.851L507.896 503.91L501.564 487.352L492.741 464.293C492.741 464.293 485.509 446.723 495.84 436.387L513.754 423.633C513.754 423.633 523.734 421.566 532.35 436.036C532.35 436.036 557.485 470.836 559.551 492.882Z" fill="#E4A944"/>
<path d="M522.236 500.851L507.897 503.91L501.564 487.352L507.897 484.272L528.899 451.539L522.236 500.851Z" fill="#CC8B2E"/>
<path d="M556.452 530.09L513.403 581.769L537.856 634.832L508.589 650.677L478.733 601.314C472.017 590.223 471.48 576.467 477.297 564.88L506.409 506.876L507.866 503.982L507.897 503.91L508.021 503.879L559.551 492.882C560.14 494.391 560.636 495.869 561.028 497.326C566.245 516.147 556.452 530.09 556.452 530.09Z" fill="#F5E9D4"/>
<path d="M531.275 638.388L516.203 646.553L523.734 657.571L508.578 663.08C508.578 663.08 500.314 664.113 498.588 671.007H540.335C544.458 671.007 547.061 666.563 545.046 662.966L531.275 638.388Z" fill="#FC967C"/>
<path d="M545.057 662.956L536.399 647.524L520.8 653.271L523.744 657.571L508.589 663.08C508.589 663.08 500.324 664.113 498.599 671.007H540.346C544.468 670.997 547.071 666.563 545.057 662.956Z" fill="#42404A"/>
<path d="M501.233 666.521C500.066 667.638 499.074 669.085 498.588 670.997H540.335C543.135 670.997 545.222 668.95 545.656 666.521H501.233Z" fill="#F5E9D4"/>
<path d="M546.462 548.002C562.702 530.359 563.001 514.08 562.547 508.613C562.495 521.45 556.441 530.09 556.441 530.09L513.393 581.769L536.358 631.608L560.915 609.334L526.482 576.601L546.462 548.002Z" fill="#DAD8C9"/>
<path d="M571.865 627.949L554.747 614.946L541.523 626.936L551.286 635.173L547.412 652.568C547.412 652.568 544.829 657.219 547.154 661.354L572.382 637.313C575.13 634.698 574.882 630.243 571.865 627.949Z" fill="#E87862"/>
<path d="M571.866 627.948L562.124 620.548L547.598 632.062L551.287 635.173L547.412 652.568C547.412 652.568 544.83 657.219 547.154 661.353L572.382 637.312C575.13 634.697 574.882 630.243 571.866 627.948Z" fill="#36343E"/>
<path d="M571.866 627.948L547.412 652.568C547.412 652.568 544.83 657.219 547.154 661.353L572.382 637.312C575.13 634.697 574.882 630.243 571.866 627.948Z" fill="#DAD8C9"/>
<path d="M528.3 456.108L516.678 491.249C511.512 499.776 503.764 495.9 503.764 495.9L477.906 480.148L464.817 472.169L457.533 467.735C441.779 459.467 450.302 449.131 450.302 449.131C453.143 446.805 455.467 450.423 455.467 450.423C457.275 448.356 458.825 449.648 458.825 449.648C463.99 450.94 465.798 459.467 465.798 459.467L470.457 461.151L485.313 466.516L496.533 470.578L500.665 453.524C501.295 448.904 502.246 445.307 503.351 442.526C506.925 433.534 518.692 430.754 525.294 437.834C531.699 444.697 528.3 456.108 528.3 456.108Z" fill="#FC967C"/>
<path d="M485.313 466.516L477.906 480.148L464.817 472.169L470.458 461.151L485.313 466.516Z" fill="#E87862"/>
<path d="M525.294 437.834C518.692 430.754 506.926 433.534 503.361 442.526C502.256 445.317 501.295 448.904 500.675 453.524L496.543 470.578L473.247 462.154L467.699 473.926L503.775 495.9C503.775 495.9 511.523 499.776 516.688 491.249L528.311 456.108C528.3 456.108 531.689 444.697 525.294 437.834Z" fill="#E4A944"/>
<path d="M565.212 462.567C564.716 451.746 556.452 448.097 556.452 448.097L531.668 434.94C531.895 435.291 532.123 435.653 532.35 436.036C532.35 436.036 549.096 459.218 556.369 479.725C561.937 476.252 565.233 474.309 565.233 463.59C565.233 463.249 565.223 462.908 565.212 462.567Z" fill="#CC8B2E"/>
<path d="M513.754 423.633L495.84 436.387C495.303 436.924 494.818 437.493 494.363 438.082L493.95 438.278L491.44 434.599L490.293 432.914L484.776 424.842C481.036 427.302 477.028 426.651 477.028 426.651C468.639 424.966 469.931 412.439 469.931 412.439C465.933 411.922 466.966 409.463 466.966 409.463C469.796 408.946 470.581 407.271 470.581 407.271C470.581 403.912 473.546 397.845 473.546 397.845C477.1 397.907 485.293 398.61 485.293 398.61C486.718 405.328 493.557 404.295 493.557 404.295C497.442 404.171 497.173 409.979 497.173 409.979L509.911 420.47L513.754 423.633Z" fill="#FC967C"/>
<path d="M472.452 400.16C472.111 400.098 466.46 394.083 469.931 387.633C469.931 387.633 469.022 377.939 479.105 375.107C479.105 375.107 492.018 373.039 489.301 387.117C489.301 387.117 488.661 389.06 492.917 388.274C497.173 387.489 506.605 393.308 503.124 403.385C503.124 403.385 500.417 412.046 505.965 412.429C505.965 412.429 499.508 416.046 493.568 414.496L495.427 411.798C496.078 410.858 496.502 409.741 496.502 408.594C496.502 407.199 495.934 405.752 493.31 406.486C493.31 406.486 490.21 407.912 489.301 411.778C489.301 411.778 485.685 409.194 487.111 404.15C487.111 404.15 485.241 403.891 485.169 399.623L473.691 398.072C473.288 398.548 472.452 400.16 472.452 400.16Z" fill="#36343E"/>
<path d="M473.195 412.956C471.604 412.956 470.354 410.723 470.354 407.871C470.354 405.018 471.604 402.786 473.195 402.786C474.786 402.786 476.036 405.018 476.036 407.871C476.036 410.723 474.796 412.956 473.195 412.956ZM473.195 403.819C472.338 403.819 471.387 405.483 471.387 407.871C471.387 410.258 472.338 411.922 473.195 411.922C474.052 411.922 475.003 410.258 475.003 407.871C475.003 405.483 474.052 403.819 473.195 403.819Z" fill="#42404A"/>
<path d="M561.028 497.326L506.409 506.876L507.865 503.982L508.02 503.879L559.551 492.882C560.14 494.391 560.636 495.869 561.028 497.326Z" fill="#36343E"/>
<path d="M490.293 432.914L484.776 424.842C484.776 424.842 490.334 422.775 493.258 418.299C493.258 418.299 493.981 426.392 490.293 432.914Z" fill="#E87862"/>
<path d="M471.739 416.573L479.363 414.899C479.353 414.889 475.479 423.416 471.739 416.573Z" fill="#36343E"/>
<path d="M513.754 423.633L495.84 436.387C495.303 436.925 494.818 437.493 494.363 438.082L493.95 438.279L491.439 434.599L509.911 420.47L513.754 423.633Z" fill="#36343E"/>
<path d="M535.407 525.201C531.699 525.201 528.496 524.302 525.82 522.493C519.704 518.369 518.785 511.114 518.754 510.804L521.833 510.442C521.843 510.504 522.649 516.633 527.576 519.94C531.234 522.39 536.296 522.752 542.608 521.015L543.434 524.002C540.542 524.798 537.866 525.201 535.407 525.201Z" fill="#DAD8C9"/>
<path d="M506.512 588.363L505.841 587.577L512.401 581.955L506.688 579.846L507.039 578.875L514.405 581.593L506.512 588.363Z" fill="#DAD8C9"/>
<path d="M318.97 248.763C318.97 248.763 303.404 241.569 294.75 256.242C294.75 256.242 283.797 258.251 284.954 273.78C284.954 273.78 273.415 271.486 273.129 289.308C273.129 289.308 276.3 297.357 265.632 302.827C265.632 302.827 251.794 310.591 261.591 327.558C271.388 344.525 294.165 343.372 305.418 333.884C305.418 333.884 331.937 335.322 335.108 310.591C335.108 310.591 346.061 303.682 335.978 284.421C335.978 284.421 344.047 273.78 329.638 256.813C329.638 256.813 329.352 247.61 318.97 248.763Z" fill="#68332C"/>
<path d="M381.819 327.409C381.819 327.409 372.172 354.882 359.477 370.546C359.477 370.546 349.231 387.092 341.884 371.415L335.897 367.763V367.75L297.553 344.362L292.151 341.078L251.019 412.597C251.019 412.597 246.977 420.253 239.684 423.524C239.684 423.524 236.609 423.524 239.684 419.872C239.684 419.872 233.344 425.628 229.506 426.008C229.506 426.008 227.207 426.266 226.336 424.61C225.71 423.429 225.805 421.284 227.955 417.375C227.955 417.375 231.411 411.05 238.732 406.842C238.732 406.842 243.916 403.571 246.406 395.915L257.359 371.36L265.265 353.62L278.313 324.382C278.313 324.382 287.92 303.872 297.54 303.872C297.54 303.872 299.458 303.479 302.914 305.026C302.914 305.026 310.03 306.356 310.221 302.338L308.683 287.584C308.683 287.584 307.731 284.136 308.683 281.449C308.683 281.449 315.31 273.78 315.936 259.106C315.936 259.106 320.848 263.993 328.481 266.015C328.481 266.015 330.236 270.916 330.889 276.63V276.644C331.121 278.652 331.216 280.77 331.039 282.806C330.645 287.597 328.808 291.941 323.868 293.475C323.868 293.475 324.317 295.47 324.862 297.9C325.651 301.497 326.671 306.017 326.753 306.275C326.889 306.696 329.774 309.152 333.679 308.582C333.679 308.582 349.68 306.275 351.259 319.794L350.252 339.286L349.789 348.272L349.68 350.416L368.852 328.427C368.852 328.427 367.695 317.785 371.451 315.057C371.451 315.057 372.893 314.758 373.029 317.636C373.029 317.636 373.601 307.578 379.098 311.175C379.098 311.175 379.873 312.152 380.69 313.89C381.996 316.699 383.425 321.532 381.819 327.409Z" fill="#EEA675"/>
<path d="M381.819 327.409C381.819 327.409 372.172 354.882 359.477 370.546C359.477 370.546 349.231 387.092 341.883 371.414L335.896 367.763V367.75C336.033 358.615 336.141 351.217 336.141 351.217L342.673 319.97L345.176 338.756L350.265 339.259L349.802 348.244C348.483 351.678 345.952 359.863 345.952 371.537C345.952 371.537 350.755 377.482 356.511 370.193C362.28 362.917 377.465 332.431 377.465 332.431C377.465 332.431 382.907 323.866 380.676 313.862C381.996 316.699 383.424 321.531 381.819 327.409Z" fill="#D17D43"/>
<path d="M300.478 337.046L297.553 344.363L292.151 341.078L251.018 412.597C251.018 412.597 246.977 420.253 239.684 423.524C239.684 423.524 236.609 423.524 239.684 419.873C239.684 419.873 233.343 425.628 229.506 426.008C229.506 426.008 227.207 426.266 226.336 424.61L226.39 424.474C226.39 424.474 233.017 425.343 242.242 415.841C242.242 415.841 245.412 418.719 250.311 410.086C255.209 401.453 296.152 327.83 296.152 327.83L296.437 319.781L300.478 337.046Z" fill="#D17D43"/>
<path d="M305.989 538.086C297.635 556.492 310.316 559.369 310.316 559.369L316.466 562.505L323.868 566.278C326.168 572.033 319.542 572.318 319.542 572.318L296.193 570.88C286.096 570.011 283.511 567.717 283.511 567.717C280.599 565.192 281.742 560.061 282.804 556.967C283.307 555.487 283.797 554.483 283.797 554.483C290.423 537.516 290.423 527.159 290.423 527.159C292.437 486.9 311.473 473.095 311.473 473.095C313.459 471.616 314.602 470.19 315.174 468.887C315.813 467.449 315.759 466.159 315.432 465.114C314.861 463.281 313.487 462.168 313.487 462.168L311.84 460.458L301.173 449.368L298.329 446.396L286.11 433.691L304.914 425.235L314.942 420.742C314.942 420.742 336.563 437.994 345.217 448.636C345.353 448.812 345.489 448.988 345.639 449.165C347.721 451.92 348.782 454.825 349.231 457.635C350.483 465.643 346.673 472.797 346.673 472.797C346.673 472.797 314.357 519.68 305.989 538.086Z" fill="#C17948"/>
<path d="M315.174 468.873C315.813 467.435 315.759 466.145 315.432 465.1C314.861 463.267 313.486 462.154 313.486 462.154L311.84 460.444L301.172 449.354L298.329 446.382L309.418 437.138L345.612 449.178C347.693 451.933 348.755 454.838 349.204 457.648L315.174 468.873Z" fill="#68332C"/>
<path d="M319.542 572.319L296.193 570.88C286.096 570.011 283.511 567.717 283.511 567.717C280.599 565.192 281.742 560.062 282.804 556.967C283.62 558.867 285.865 562.206 291.58 562.817C299.649 563.686 312.915 564.541 312.915 564.541C312.915 564.541 314.861 564.12 316.466 562.491L323.868 566.265C326.182 572.02 319.542 572.319 319.542 572.319Z" fill="#111319"/>
<path d="M342.292 449.789L315.446 465.1C314.874 463.268 313.5 462.155 313.5 462.155L311.854 460.444L301.186 449.355L286.11 433.691L304.914 425.234L312.303 424.474L342.292 449.789Z" fill="#991E0A"/>
<path d="M380.091 470.204L376.771 476.095L348.959 525.421C333.393 546.99 335.121 553.6 335.121 553.6C335.121 558.744 338.686 564.323 341.952 568.341C344.7 571.734 347.231 574.028 347.231 574.028C355.3 584.1 345.503 584.1 345.503 584.1C345.503 584.1 338.577 583.231 328.78 579.213C318.984 575.196 319.269 569.725 319.269 569.725C318.017 563.726 314.602 559.912 313.704 559.002C313.582 558.867 313.5 558.799 313.5 558.799C309.173 553.043 309.459 550.75 309.459 550.75C308.901 544.614 316.752 541.723 317.215 541.56C317.228 541.547 317.242 541.547 317.242 541.547C323.583 538.384 324.739 534.068 324.739 534.068L328.481 503.296C332.808 482.881 345.489 476.542 345.489 476.542C350.388 470.502 345.203 467.625 345.203 467.625L336.699 462.738L329.964 458.87L326.971 457.146L317.038 451.445L286.096 433.677C269.088 421.311 270.53 408.077 270.53 408.077C271.687 375.582 295.036 362.062 295.036 362.062L292.151 341.064L299.934 328.698C301.907 326.133 303.935 324.301 305.799 322.998C309.595 320.351 314.616 320.31 318.562 322.726L321.147 324.314C325.243 326.825 330.508 326.472 334.182 323.378C334.223 323.337 334.277 323.296 334.318 323.255C336.631 321.342 340.006 321.545 342.088 323.676L348.36 330.124C353.544 334.44 352.401 339.042 352.401 339.042C350.088 347.091 344.904 349.398 344.904 349.398C346.918 364.927 341.448 378.161 341.448 378.161C336.264 395.997 346.061 416.696 346.061 416.696L359.082 428.953L368.09 437.437L375.274 444.183L376.335 445.187C389.888 456.698 380.091 470.204 380.091 470.204Z" fill="#EEA675"/>
<path d="M352.279 477.207C324.603 496.183 328.059 528.787 328.059 534.732C328.059 540.678 323.256 543.745 323.256 543.745C313.908 548.021 313.473 555.961 313.691 559.002C313.568 558.866 313.487 558.798 313.487 558.798C309.16 553.043 309.445 550.749 309.445 550.749C308.887 544.614 316.739 541.723 317.201 541.56C317.215 541.546 317.228 541.546 317.228 541.546C323.569 538.384 324.726 534.067 324.726 534.067L328.467 503.296C332.794 482.881 345.476 476.542 345.476 476.542C350.374 470.502 345.19 467.624 345.19 467.624L336.686 462.738L329.951 458.869L326.957 457.145L333.624 453.63C333.624 453.63 349.571 463.226 353.422 468.004C357.273 472.796 352.279 477.207 352.279 477.207Z" fill="#D17D43"/>
<path d="M368.09 437.45L336.7 462.738L329.964 458.87L317.038 451.445L330.944 433.31L359.083 428.967L368.09 437.45Z" fill="#D17D43"/>
<path d="M310.901 321.816C310.588 321.816 310.344 321.572 310.33 321.26C310.33 321.178 309.99 313.523 305.785 305.691C305.636 305.406 305.744 305.066 306.017 304.917C306.302 304.768 306.643 304.876 306.792 305.148C311.133 313.224 311.459 320.893 311.473 321.219C311.486 321.531 311.242 321.803 310.915 321.816C310.915 321.816 310.901 321.816 310.901 321.816Z" fill="#42404A"/>
<path d="M338.278 322.387C337.979 322.387 337.72 322.142 337.706 321.844C337.421 316.265 334.332 309.179 334.291 309.098C334.169 308.813 334.291 308.474 334.591 308.338C334.89 308.202 335.216 308.338 335.353 308.637C335.489 308.935 338.564 315.993 338.863 321.776C338.877 322.088 338.632 322.359 338.319 322.373C338.305 322.387 338.292 322.387 338.278 322.387Z" fill="#42404A"/>
<path d="M324.862 297.9C316.031 297.561 311.895 288.439 311.895 288.439C317.528 294.195 323.868 293.462 323.868 293.462C323.868 293.462 324.317 295.484 324.862 297.9Z" fill="#D17D43"/>
<path d="M315.079 276.508C314.984 276.508 314.875 276.481 314.793 276.426C314.521 276.263 314.426 275.91 314.589 275.639C314.616 275.585 315.405 274.254 316.888 273.874C317.841 273.63 318.834 273.82 319.855 274.431C320.127 274.594 320.222 274.947 320.059 275.218C319.895 275.49 319.542 275.585 319.27 275.422C318.521 274.974 317.827 274.838 317.188 275.001C316.181 275.259 315.596 276.223 315.596 276.223C315.473 276.413 315.269 276.508 315.079 276.508Z" fill="#42404A"/>
<path d="M326.032 274.064C325.977 274.064 325.909 274.051 325.855 274.037C325.556 273.942 325.392 273.616 325.488 273.318C325.542 273.155 326.032 271.77 327.148 271.512C327.773 271.363 328.413 271.607 329.039 272.232C329.27 272.462 329.27 272.815 329.039 273.046C328.808 273.277 328.454 273.277 328.223 273.046C328.005 272.829 327.678 272.571 327.406 272.625C327.025 272.72 326.685 273.372 326.576 273.684C326.494 273.915 326.277 274.064 326.032 274.064Z" fill="#42404A"/>
<path d="M325.161 279.1C325.011 279.1 324.862 279.046 324.753 278.937C324.522 278.707 324.522 278.354 324.753 278.123L326.427 276.453C322.902 274.947 322.712 272.205 322.712 272.083C322.698 271.77 322.943 271.499 323.256 271.485C323.569 271.458 323.841 271.716 323.855 272.028C323.869 272.137 324.073 274.539 327.638 275.68L328.536 275.965L325.556 278.937C325.46 279.046 325.311 279.1 325.161 279.1Z" fill="#42404A"/>
<path d="M319.691 281.978C319.691 281.978 325.175 285.141 328.046 280.688C328.046 280.688 328.549 283.485 326.957 285.168C326.277 285.887 325.202 286.104 324.25 285.833C323.039 285.494 321.27 284.543 319.691 281.978Z" fill="#42404A"/>
<path d="M314.357 270.047C314.207 270.047 314.058 269.993 313.949 269.871C313.731 269.64 313.731 269.287 313.949 269.056C314.031 268.975 315.84 267.224 319.038 268.5C319.337 268.622 319.473 268.948 319.364 269.246C319.242 269.545 318.902 269.681 318.616 269.572C316.153 268.581 314.82 269.83 314.765 269.884C314.643 269.993 314.507 270.047 314.357 270.047Z" fill="#42404A"/>
<path d="M324.59 268.893C324.522 268.893 324.454 268.879 324.399 268.866C324.1 268.757 323.937 268.431 324.046 268.133C324.073 268.038 324.903 265.839 327.883 265.744C328.196 265.717 328.468 265.974 328.481 266.3C328.495 266.612 328.25 266.884 327.923 266.897C325.706 266.979 325.134 268.513 325.134 268.526C325.052 268.743 324.821 268.893 324.59 268.893Z" fill="#42404A"/>
<path d="M345.489 584.1C345.489 584.1 338.564 583.231 328.767 579.213C318.97 575.182 319.256 569.725 319.256 569.725C317.813 562.816 313.487 558.799 313.487 558.799C309.16 553.043 309.445 550.749 309.445 550.749C308.887 544.614 316.739 541.723 317.201 541.56C316.902 541.75 314.004 543.99 318.671 552.188C323.569 560.821 324.44 561.676 324.44 561.676L328.767 569.155C328.767 569.155 336.55 575.196 341.734 568.585C341.788 568.504 341.843 568.436 341.924 568.368C344.673 571.761 347.204 574.055 347.204 574.055C355.3 584.1 345.489 584.1 345.489 584.1Z" fill="#513741"/>
<path d="M363.94 433.542L359.749 436.663L347.653 445.69L339.815 451.54L329.964 458.883L286.096 433.704C269.088 421.339 270.53 408.105 270.53 408.105C271.687 375.609 295.036 362.09 295.036 362.09L292.151 341.092L296.9 333.545L299.934 328.726C301.24 327.029 302.574 325.658 303.867 324.545C304.52 323.975 305.173 323.473 305.799 323.039C309.595 320.392 314.616 320.351 318.562 322.767L320.848 324.165L321.147 324.355C325.243 326.866 330.508 326.513 334.182 323.419C334.223 323.378 334.277 323.337 334.318 323.296C336.631 321.383 340.006 321.586 342.088 323.717L347.313 329.106L348.36 330.178C353.544 334.495 352.401 339.096 352.401 339.096C351.993 340.494 351.517 341.716 350.986 342.788C350.755 343.236 350.524 343.657 350.279 344.064C347.843 348.136 344.904 349.453 344.904 349.453C345.135 351.231 345.272 352.968 345.326 354.679C345.516 360.977 344.632 366.651 343.666 370.845C342.605 375.406 341.434 378.215 341.434 378.215C336.25 396.051 346.047 416.751 346.047 416.751L363.94 433.542Z" fill="#D04A18"/>
<path d="M318.494 282.725C318.82 284.68 317.487 286.539 315.527 286.865C313.568 287.191 311.704 285.86 311.377 283.906C311.051 281.951 312.384 280.092 314.344 279.766C316.317 279.44 318.181 280.77 318.494 282.725Z" fill="#DB9261"/>
<path d="M331.039 282.806C330.127 282.29 329.447 281.381 329.257 280.268C329.012 278.802 329.692 277.377 330.876 276.644C331.121 278.652 331.216 280.77 331.039 282.806Z" fill="#DB9261"/>
<path d="M319.8 282.155C321.351 284.584 323.066 285.507 324.25 285.833C325.202 286.105 326.277 285.888 326.957 285.168C327.134 284.978 327.284 284.761 327.42 284.544C326.604 283.933 325.61 283.417 324.481 283.01C322.603 283.268 320.766 282.521 320.032 282.168C319.964 282.155 319.882 282.155 319.8 282.155Z" fill="#F15E45"/>
<path d="M352.415 339.068C352.007 340.467 351.531 341.688 351 342.76C350.769 343.208 350.537 343.629 350.293 344.036C346.809 342.842 344.306 339.543 344.306 335.702C344.306 333.069 345.476 330.693 347.326 329.092L348.374 330.164C353.558 334.467 352.415 339.068 352.415 339.068Z" fill="#F4C89C"/>
<path d="M320.861 324.137C319.759 327.775 316.344 330.436 312.303 330.436C308.411 330.436 305.078 327.965 303.867 324.517C304.52 323.947 305.173 323.445 305.799 323.011C309.595 320.364 314.616 320.323 318.562 322.739L320.861 324.137Z" fill="#F4C89C"/>
<path d="M331.406 342.394C335.502 342.394 338.822 339.781 338.822 336.557C338.822 333.334 335.502 330.721 331.406 330.721C327.311 330.721 323.991 333.334 323.991 336.557C323.991 339.781 327.311 342.394 331.406 342.394Z" fill="#F4C89C"/>
<path d="M343.679 370.804C339.557 370.37 336.373 366.922 336.373 362.728C336.373 358.235 340.046 354.597 344.591 354.597C344.849 354.597 345.094 354.611 345.339 354.638C345.543 360.95 344.645 366.61 343.679 370.804Z" fill="#F4C89C"/>
<path d="M325.651 371.659C322.617 374.917 316.494 374.17 311.99 369.989C307.486 365.809 306.289 359.782 309.323 356.524C312.357 353.267 318.48 354.013 322.984 358.194C327.502 362.375 328.685 368.401 325.651 371.659Z" fill="#F4C89C"/>
<path d="M350.986 342.761C348.455 347.851 344.904 349.425 344.904 349.425C344.904 349.425 329.012 356.036 310.561 345.394C310.575 345.394 344.333 349.33 350.986 342.761Z" fill="#B73011"/>
<path d="M314.316 393.866C318.863 393.866 322.548 390.225 322.548 385.735C322.548 381.245 318.863 377.604 314.316 377.604C309.77 377.604 306.084 381.245 306.084 385.735C306.084 390.225 309.77 393.866 314.316 393.866Z" fill="#F4C89C"/>
<path d="M312.738 456.779C312.738 458.096 312.411 459.345 311.84 460.444L301.172 449.355C302.193 448.893 303.322 448.635 304.52 448.635C309.064 448.635 312.738 452.273 312.738 456.779Z" fill="#BF7F4F"/>
<path d="M336.673 416.792C336.673 421.285 332.985 424.922 328.454 424.922C323.91 424.922 320.222 421.285 320.222 416.792C320.222 412.299 323.91 408.661 328.454 408.661C332.985 408.661 336.673 412.299 336.673 416.792Z" fill="#F4C89C"/>
<path d="M359.762 436.65L347.666 445.676C345.217 444.265 343.584 441.645 343.584 438.645C343.584 434.152 347.258 430.515 351.802 430.515C355.653 430.515 358.864 433.121 359.762 436.65Z" fill="#F4C89C"/>
<path d="M325.684 396.168L324.878 396.996L345.676 417.133L346.482 416.305L325.684 396.168Z" fill="#B73011"/>
<path d="M318.235 438.346C316.412 440.518 313.65 441.903 310.575 441.903C305.064 441.903 300.601 437.491 300.601 432.048C300.601 430.637 300.901 429.306 301.445 428.098L290.233 421.257C283.988 417.443 280.559 410.358 281.389 403.096C281.416 402.865 281.457 402.634 281.484 402.39C280.246 400.707 279.525 398.657 279.525 396.458C279.525 392.183 282.246 388.504 286.151 386.875C292.369 373.79 302.112 365.836 302.112 365.836L299.771 351.326C296.723 350.131 294.56 347.2 294.56 343.765C294.56 341.241 295.716 338.987 297.54 337.494L296.9 333.544L292.152 341.091L295.036 362.09C295.036 362.09 292.478 363.583 289.022 366.732C289.621 367.859 289.961 369.148 289.961 370.505C289.961 374.998 286.273 378.636 281.742 378.636C280.926 378.636 280.137 378.514 279.389 378.297C274.858 385.531 270.98 395.345 270.531 408.104C270.531 408.104 269.959 413.48 273.919 420.565C275.184 419.778 276.667 419.316 278.273 419.316C282.817 419.316 286.505 422.954 286.505 427.447C286.505 429.401 285.811 431.193 284.641 432.591C285.117 432.958 285.593 433.324 286.097 433.691L329.964 458.87L339.816 451.526L318.235 438.346Z" fill="#B73011"/>
<path d="M302.792 351.882C307.336 351.882 311.01 348.245 311.01 343.752C311.01 339.259 307.323 335.621 302.792 335.621C300.805 335.621 298.968 336.327 297.553 337.494L299.785 351.326C300.71 351.665 301.73 351.882 302.792 351.882Z" fill="#F4C89C"/>
<path d="M294.56 343.738C294.56 347.172 296.724 350.118 299.771 351.299L297.54 337.467C295.73 338.974 294.56 341.227 294.56 343.738Z" fill="#D89961"/>
<path d="M289.961 370.492C289.961 369.121 289.621 367.845 289.022 366.718C286.124 369.365 282.6 373.179 279.389 378.283C280.137 378.5 280.926 378.622 281.743 378.622C286.287 378.622 289.961 374.985 289.961 370.492Z" fill="#D89961"/>
<path d="M278.286 419.302C276.681 419.302 275.198 419.764 273.932 420.551C276.014 424.27 279.334 428.451 284.654 432.591C285.811 431.193 286.518 429.401 286.518 427.446C286.505 422.94 282.831 419.302 278.286 419.302Z" fill="#D89961"/>
<path d="M320.549 432.035C320.549 426.592 316.086 422.18 310.575 422.18C306.493 422.18 302.982 424.61 301.445 428.085L318.235 438.346C319.678 436.636 320.549 434.437 320.549 432.035Z" fill="#F4C89C"/>
<path d="M310.575 441.903C313.65 441.903 316.412 440.518 318.235 438.347L301.445 428.085C300.9 429.293 300.601 430.637 300.601 432.035C300.601 437.478 305.064 441.903 310.575 441.903Z" fill="#D89961"/>
<path d="M290.682 406.937C296.832 406.937 301.826 402.241 301.826 396.445C301.826 390.649 296.832 385.952 290.682 385.952C289.076 385.952 287.539 386.278 286.165 386.862C283.988 391.449 282.246 396.662 281.498 402.39C283.498 405.132 286.859 406.937 290.682 406.937Z" fill="#F4C89C"/>
<path d="M279.538 396.444C279.538 398.643 280.259 400.693 281.497 402.376C282.245 396.648 283.987 391.436 286.164 386.848C282.259 388.49 279.538 392.155 279.538 396.444Z" fill="#D89961"/>
<path d="M313.691 559.002C313.541 556.898 313.704 552.46 316.916 548.496C314.943 543.297 316.97 541.723 317.215 541.56C316.739 541.723 308.901 544.614 309.459 550.749C309.459 550.749 309.432 550.967 309.527 551.455C309.731 552.528 310.52 554.849 313.5 558.799C313.487 558.785 313.568 558.866 313.691 559.002Z" fill="#3D2A32"/>
<path d="M380.091 470.204L376.771 476.095C370.594 473.244 366.308 467 366.308 459.752C366.308 453.101 369.913 447.305 375.274 444.169L376.336 445.174C389.888 456.698 380.091 470.204 380.091 470.204Z" fill="#DB9261"/>
<path d="M270.204 362.157C270.204 367.56 265.904 371.93 260.598 371.93C259.455 371.93 258.366 371.74 257.359 371.36L265.265 353.62C268.217 355.289 270.204 358.493 270.204 362.157Z" fill="#DB9261"/>
<path d="M851.086 158.141L851.067 158.215L849.862 164.138L843.246 196.563L841.801 203.651L838.112 221.715L835.722 272.722L835.407 279.014L834.461 299.206L834.165 305.665L833.053 329.188H751.359L753.045 322.174L718.685 338.997V338.997L706.879 344.772L697.353 349.436L682.323 356.635C676.707 362.539 667.682 365.63 667.682 365.63C655.839 369.294 649.074 356.061 649.074 356.061C648.222 350.435 654.986 349.584 654.986 349.584C651.335 348.177 653.04 346.771 653.04 346.771C658.656 342.292 670.499 342.847 670.499 342.847L686.511 331.187L706.268 318.991L712.087 315.4L736.013 300.631L730.12 260.211L728.637 250.05L728.248 247.348C725.709 231.598 742.352 225.139 742.352 225.139L757.011 218.994L765.166 215.57L764.573 213.701L761.793 204.891C742.074 201.505 738.682 165.489 738.682 165.489C746.911 156.55 763.405 160.288 763.405 160.288C765.74 165.563 770.374 164.73 770.374 164.73C771.838 170.208 776.286 168.95 776.286 168.95C779.881 160.51 782.828 167.044 782.828 167.044C784.737 173.799 781.79 178.851 781.79 178.851L797.432 205.872L801.825 206.372L805.031 206.724L807.477 197.544L809.052 191.64L818.968 154.384L813.074 142.502L810.35 137.061L806.235 128.77L790.649 97.4181L786.85 93.1983C779.251 83.926 782.624 79.2806 782.624 79.2806C785.46 77.0597 787.332 80.0209 788.147 81.6681L786.016 76.3379C781.79 67.4728 789.389 67.0656 789.389 67.0656C799.526 66.2143 803.344 77.1893 803.344 77.1893L802.918 93.6425C802.918 93.6425 811.61 102.915 821.358 113.427C831.663 124.513 843.191 136.987 846.86 141.337C854.051 149.702 851.086 158.141 851.086 158.141Z" fill="#4380A3"/>
<path d="M826.824 321.873L809.713 314.205L807.247 319.693L824.358 327.36L826.824 321.873Z" fill="#F5E9D4"/>
<path d="M763.271 310.143L744.585 308.523L744.064 314.516L762.75 316.136L763.271 310.143Z" fill="#F5E9D4"/>
<path d="M718.685 338.997L722.947 333.537L718.184 329.836L706.675 344.623L706.879 344.772L718.685 338.997Z" fill="#F5E9D4"/>
<path d="M720.427 320.193L717.406 325.412L706.268 318.99L712.087 315.4L720.427 320.193Z" fill="#F5E9D4"/>
<path d="M738.538 327.507L736.341 308.907L730.36 309.611L732.556 328.212L738.538 327.507Z" fill="#F5E9D4"/>
<path d="M787.276 240.852C766.278 243.961 758.179 222.418 757.011 218.957L765.166 215.533L764.573 213.664L761.793 204.854C758.531 204.299 755.714 202.837 753.286 200.801C751.007 198.895 749.079 196.489 747.448 193.824C740.239 182.109 738.682 165.452 738.682 165.452C746.911 156.513 763.387 160.251 763.387 160.251C765.722 165.526 770.374 164.693 770.374 164.693C771.838 170.153 776.286 168.913 776.286 168.913C779.9 160.473 782.828 167.006 782.828 167.006C784.737 173.762 781.79 178.814 781.79 178.814L797.414 205.835L801.825 206.316C807.162 235.484 787.276 240.852 787.276 240.852Z" fill="#F7C39C"/>
<path d="M775.1 187.013C775.1 189.53 773.061 191.566 770.541 191.566C768.02 191.566 765.981 189.53 765.981 187.013C765.981 184.496 768.02 182.46 770.541 182.46C773.061 182.46 775.1 184.496 775.1 187.013Z" fill="#FFAD9F"/>
<path d="M754.713 197.488C754.713 198.784 754.176 199.968 753.286 200.801C751.007 198.895 749.079 196.489 747.448 193.824C748.208 193.269 749.135 192.936 750.154 192.936C752.675 192.936 754.713 194.971 754.713 197.488Z" fill="#FFAD9F"/>
<path d="M764.591 213.664L761.812 204.854C761.812 204.854 776.323 206.686 778.621 191.27C778.621 191.27 784.959 207.982 764.591 213.664Z" fill="#F58872"/>
<path d="M727.488 157.087L724.745 160.048C721.576 167.432 727.488 168.487 727.488 168.487C731.51 170.597 738.682 165.452 738.682 165.452C746.911 156.531 763.387 160.251 763.387 160.251C765.722 165.526 770.374 164.693 770.374 164.693C771.838 170.172 776.286 168.913 776.286 168.913C779.881 160.474 782.828 167.007 782.828 167.007C784.737 173.762 781.771 178.815 781.771 178.815L785.385 185.052L791.909 185.348L784.941 178.815C786.627 165.952 780.715 159.622 780.715 159.622C777.75 143.373 761.7 139.375 753.027 142.318C744.372 145.279 734.012 141.892 734.012 141.892C730.638 140.411 726.821 138.931 723.874 145.482C720.946 152.034 727.488 157.087 727.488 157.087Z" fill="#42404A"/>
<path d="M754.454 192.139L754.12 191.325C752.823 188.086 752.804 181.646 752.804 181.368C752.804 180.998 753.101 180.702 753.471 180.702C753.842 180.702 754.139 180.998 754.139 181.368C754.139 181.423 754.157 186.754 755.065 189.974L757.067 188.438C757.363 188.216 757.771 188.271 758.012 188.567C758.234 188.863 758.179 189.271 757.882 189.511L754.454 192.139Z" fill="#F58872"/>
<path d="M756.863 194.435C756.863 194.435 763.202 195.064 766.797 188.309C766.797 188.327 766.371 204.78 756.863 194.435Z" fill="#42404A"/>
<path d="M857.85 581.428C852.216 600.731 859.518 614.186 864.355 620.442C866.412 623.089 868.006 624.458 868.006 624.458C879.423 636.266 875.179 648.925 875.179 648.925L819.82 607.986C820.821 604.822 822.229 602.064 823.619 599.788C826.344 595.383 829.105 592.792 829.105 592.792L841.782 487.706C843.895 476.749 841.782 474.621 841.782 474.621L800.379 384.323L806.291 620.646L809.404 626.124L820.673 645.964H770.818C772.412 641.485 774.506 636.988 776.49 633.157C779.733 626.883 782.643 622.33 782.643 622.33L745.446 429.074C736.995 360.707 751.359 329.188 751.359 329.188H833.053C833.053 329.188 869.674 417.247 881.091 445.101C892.507 472.955 885.742 489.834 885.742 489.834L857.85 581.428Z" fill="#F7C39C"/>
<path d="M764.906 530.181H804.048L800.397 384.341L841.8 474.639C841.8 474.639 843.913 476.749 841.8 487.724L836.685 530.181H873.474L885.761 489.834C885.761 489.834 892.526 472.955 881.109 445.101C869.693 417.247 833.071 329.188 833.071 329.188H751.359C751.359 329.188 736.995 360.707 745.446 429.074L764.906 530.181Z" fill="#F58872"/>
<path d="M763.628 523.277H803.882L800.397 384.119L841.819 474.436C841.819 474.436 843.932 476.546 841.819 487.521L837.501 523.296H875.512L885.761 489.631C885.761 489.631 892.526 472.752 881.109 444.898C869.693 417.044 833.071 328.985 833.071 328.985H751.359C751.359 328.985 736.995 360.503 745.446 428.87L763.628 523.277Z" fill="#D04A18"/>
<path d="M761.311 511.469L763.628 523.499H803.863L803.567 511.469H761.311Z" fill="#F5E9D4"/>
<path d="M838.947 511.469L837.482 523.499H875.494L879.163 511.469H838.947Z" fill="#F5E9D4"/>
<path d="M697.353 349.436L686.27 354.766L682.341 356.653C676.726 362.557 667.7 365.648 667.7 365.648C655.857 369.313 649.093 356.08 649.093 356.08C648.24 350.453 655.005 349.602 655.005 349.602C651.354 348.196 653.059 346.789 653.059 346.789C658.675 342.31 670.517 342.865 670.517 342.865L677.263 337.961L686.53 331.206L697.353 349.436Z" fill="#F7C39C"/>
<path d="M821.358 113.372C815.872 118.813 809.96 124.772 806.254 128.751L800.49 117.129L790.667 97.3995L786.868 93.1798C779.269 83.9075 782.642 79.2621 782.642 79.2621C785.478 77.0412 787.35 80.0024 788.165 81.6496L786.034 76.3194C781.809 67.4543 789.407 67.0471 789.407 67.0471C799.545 66.1957 803.363 77.1707 803.363 77.1707L802.936 93.624C802.936 93.624 807.143 98.1213 813 104.395C815.539 107.097 818.411 110.17 821.358 113.372Z" fill="#F7C39C"/>
<path d="M740.196 249.187L738.884 249.43L752.405 322.296L753.717 322.054L740.196 249.187Z" fill="#2F587C"/>
<path d="M820.673 645.983H770.818C772.412 641.504 774.506 637.006 776.49 633.175C782.68 628.734 795.579 621.534 809.423 626.143L820.673 645.983Z" fill="#42404A"/>
<path d="M773.691 638.949C772.653 641.226 771.671 643.595 770.818 645.982H820.673L816.688 638.949H773.691Z" fill="#111319"/>
<path d="M875.179 648.944L819.82 608.005C820.339 606.376 820.951 604.84 821.637 603.452C822.267 602.12 822.952 600.917 823.62 599.806L854.292 621.571C854.292 621.571 858.962 622.163 864.355 620.442C866.413 623.089 868.007 624.458 868.007 624.458C873.622 630.27 875.457 636.303 875.846 640.911C876.272 645.668 875.179 648.944 875.179 648.944Z" fill="#42404A"/>
<path d="M825.288 169.801C825.028 169.801 824.787 169.653 824.676 169.394L818.375 154.625C818.226 154.292 818.393 153.885 818.727 153.755C819.06 153.607 819.468 153.774 819.598 154.107L825.899 168.876C826.047 169.209 825.881 169.616 825.547 169.746C825.473 169.783 825.38 169.801 825.288 169.801Z" fill="#2F587C"/>
<path d="M800.509 385.007L800.268 383.693C800.324 383.675 806.773 382.046 806.773 361.706H808.108C808.108 383.397 800.824 384.952 800.509 385.007Z" fill="#42404A"/>
<path d="M782.476 247.459C761.941 247.459 752.008 221.807 751.896 221.511C751.767 221.16 751.933 220.771 752.286 220.641C752.638 220.512 753.008 220.678 753.157 221.03C753.268 221.326 764.832 251.16 788.518 245.349C788.611 245.33 797.655 242.924 802.788 234.096C806.884 227.026 807.422 217.847 804.382 206.835C804.29 206.483 804.493 206.113 804.846 206.02C805.198 205.928 805.568 206.131 805.661 206.483C808.812 217.865 808.219 227.378 803.919 234.781C798.507 244.09 789.222 246.552 788.833 246.644C786.627 247.218 784.496 247.459 782.476 247.459Z" fill="#42404A"/>
<path d="M792.425 306.561L777.368 317.729L780.959 322.558L796.016 311.39L792.425 306.561Z" fill="#F5E9D4"/>
<path d="M817.504 293.566L799.902 287.101L797.823 292.746L815.425 299.211L817.504 293.566Z" fill="#F5E9D4"/>
<path d="M835.74 272.74L835.425 279.032L820.58 273.573L822.656 267.946L835.74 272.74Z" fill="#F5E9D4"/>
<path d="M780.043 289.594L761.702 293.509L762.961 299.391L781.302 295.476L780.043 289.594Z" fill="#F5E9D4"/>
<path d="M792.491 271.42L774.981 264.707L772.822 270.323L790.332 277.035L792.491 271.42Z" fill="#F5E9D4"/>
<path d="M843.622 145.904L827.38 136.539L824.368 141.748L840.611 151.113L843.622 145.904Z" fill="#F5E9D4"/>
<path d="M834.48 299.225L834.184 305.684L828.679 303.222L831.144 297.726L834.48 299.225Z" fill="#F5E9D4"/>
<path d="M809.052 191.603L823.249 197.951L820.784 203.448L807.496 197.507L809.052 191.603Z" fill="#F5E9D4"/>
<path d="M832.856 234.464L818.458 222.46L814.597 227.078L828.996 239.081L832.856 234.464Z" fill="#F5E9D4"/>
<path d="M843.265 196.582L841.819 203.67L833.183 207.242L830.866 201.69L843.265 196.582Z" fill="#F5E9D4"/>
<path d="M768.636 255.561L752.394 246.196L749.382 251.405L765.625 260.77L768.636 255.561Z" fill="#F5E9D4"/>
<path d="M754.018 273.375L737.776 282.74L740.788 287.949L757.03 278.584L754.018 273.375Z" fill="#F5E9D4"/>
<path d="M736.551 247.903L730.138 260.192L728.637 250.032L731.195 245.146L736.551 247.903Z" fill="#F5E9D4"/>
<path d="M816.833 252.192L798.147 250.572L797.626 256.564L816.312 258.185L816.833 252.192Z" fill="#F5E9D4"/>
<path d="M839.147 178.194L820.46 176.574L819.939 182.566L838.626 184.187L839.147 178.194Z" fill="#F5E9D4"/>
<path d="M851.086 158.234L849.881 164.156L846.267 163.842L846.786 157.845L851.086 158.234Z" fill="#F5E9D4"/>
<path d="M819.764 137.876L813.093 142.484L810.368 137.024L816.336 132.916L819.764 137.876Z" fill="#F5E9D4"/>
<path d="M749.357 184.515C749.357 185.533 748.542 186.347 747.522 186.347C746.503 186.347 745.688 185.533 745.688 184.515C745.688 183.497 746.503 182.682 747.522 182.682C748.523 182.664 749.357 183.497 749.357 184.515Z" fill="#42404A"/>
<path d="M764.424 178.481C764.424 179.499 763.609 180.313 762.59 180.313C761.57 180.313 760.755 179.499 760.755 178.481C760.755 177.463 761.57 176.649 762.59 176.649C763.59 176.649 764.424 177.482 764.424 178.481Z" fill="#42404A"/>
<path d="M755.214 173.799C755.047 173.799 754.88 173.743 754.75 173.614C754.472 173.355 754.454 172.947 754.713 172.67C754.88 172.485 759.069 168.043 764.74 169.468C765.092 169.56 765.314 169.912 765.222 170.282C765.129 170.634 764.758 170.856 764.406 170.763C759.513 169.542 755.714 173.54 755.677 173.577C755.566 173.743 755.399 173.799 755.214 173.799Z" fill="#42404A"/>
<path d="M740.813 178.148C740.684 178.148 740.572 178.111 740.461 178.037C740.146 177.833 740.053 177.426 740.257 177.13C740.331 177.001 742.259 174.058 748.023 175.502C748.375 175.594 748.597 175.946 748.505 176.316C748.412 176.668 748.041 176.89 747.689 176.797C742.926 175.613 741.443 177.759 741.388 177.852C741.258 178.037 741.036 178.148 740.813 178.148Z" fill="#42404A"/>
<path d="M697.353 349.435L686.252 354.766L677.245 337.942L686.511 331.187L697.353 349.435Z" fill="#F58872"/>
<path d="M821.359 113.372C815.873 118.813 809.961 124.772 806.254 128.751L800.49 117.129L812.982 104.358C815.539 107.098 818.412 110.17 821.359 113.372Z" fill="#F58872"/>
<path d="M767.279 512.302C736.125 391.818 753.045 335.962 753.231 335.407L754.51 335.814C754.343 336.369 737.533 391.91 768.576 511.969L767.279 512.302Z" fill="#F5E9D4"/>
<path d="M836.574 337.406C834.387 332.131 833.071 328.985 833.071 328.985H751.359C751.359 328.985 750.098 331.761 748.542 337.406H836.574Z" fill="#42404A"/>
<path d="M875.179 648.944L819.82 608.005C820.339 606.376 820.951 604.84 821.637 603.452L875.846 640.93C876.272 645.668 875.179 648.944 875.179 648.944Z" fill="#111319"/>
<defs>
<linearGradient id="paint0_linear_2414_568" x1="450.5" y1="107" x2="450.5" y2="207" gradientUnits="userSpaceOnUse">
<stop stop-color="white"/>
<stop offset="1" stop-color="white" stop-opacity="0"/>
</linearGradient>
<linearGradient id="paint1_linear_2414_568" x1="460.5" y1="101" x2="449" y2="155" gradientUnits="userSpaceOnUse">
<stop stop-color="white"/>
<stop offset="1" stop-color="white" stop-opacity="0"/>
</linearGradient>
<linearGradient id="paint2_linear_2414_568" x1="620.489" y1="192.657" x2="623.4" y2="247.792" gradientUnits="userSpaceOnUse">
<stop stop-color="white"/>
<stop offset="1" stop-color="white" stop-opacity="0"/>
</linearGradient>
<linearGradient id="paint3_linear_2414_568" x1="743.125" y1="606.509" x2="798.203" y2="610.345" gradientUnits="userSpaceOnUse">
<stop stop-color="white"/>
<stop offset="1" stop-color="white" stop-opacity="0"/>
</linearGradient>
</defs>
</svg>
