<svg width="38" height="38" viewBox="0 0 38 38" fill="none" xmlns="http://www.w3.org/2000/svg">
<path d="M29.0938 38H8.90625C3.99534 38 0 34.0047 0 29.0938V8.90625C0 3.99534 3.99534 0 8.90625 0H29.0938C34.0047 0 38 3.99534 38 8.90625V29.0938C38 34.0047 34.0047 38 29.0938 38ZM8.90625 2.96875C5.63231 2.96875 2.96875 5.63231 2.96875 8.90625V29.0938C2.96875 32.3677 5.63231 35.0312 8.90625 35.0312H29.0938C32.3677 35.0312 35.0312 32.3677 35.0312 29.0938V8.90625C35.0312 5.63231 32.3677 2.96875 29.0938 2.96875H8.90625ZM29.4648 6.67969C28.4401 6.67969 27.6094 7.51042 27.6094 8.53516C27.6094 9.55989 28.4401 10.3906 29.4648 10.3906C30.4896 10.3906 31.3203 9.55989 31.3203 8.53516C31.3203 7.51042 30.4896 6.67969 29.4648 6.67969ZM19 28.6484C13.6798 28.6484 9.35156 24.3202 9.35156 19C9.88148 6.20001 28.1204 6.20372 28.6484 19.0001C28.6484 24.3202 24.3202 28.6484 19 28.6484ZM19 12.3203C15.3168 12.3203 12.3203 15.3168 12.3203 19C12.6873 27.8615 25.3141 27.8589 25.6797 18.9999C25.6797 15.3168 22.6832 12.3203 19 12.3203Z" fill="white"/>
</svg>
