<svg width="35" height="35" viewBox="0 0 35 35" fill="none" xmlns="http://www.w3.org/2000/svg">
<path d="M8.74967 14.5835C7.14551 14.5835 5.83301 15.896 5.83301 17.5002C5.83301 19.1043 7.14551 20.4168 8.74967 20.4168C10.3538 20.4168 11.6663 19.1043 11.6663 17.5002C11.6663 15.896 10.3538 14.5835 8.74967 14.5835ZM26.2497 14.5835C24.6455 14.5835 23.333 15.896 23.333 17.5002C23.333 19.1043 24.6455 20.4168 26.2497 20.4168C27.8538 20.4168 29.1663 19.1043 29.1663 17.5002C29.1663 15.896 27.8538 14.5835 26.2497 14.5835ZM17.4997 14.5835C15.8955 14.5835 14.583 15.896 14.583 17.5002C14.583 19.1043 15.8955 20.4168 17.4997 20.4168C19.1038 20.4168 20.4163 19.1043 20.4163 17.5002C20.4163 15.896 19.1038 14.5835 17.4997 14.5835Z" fill="#FF6A7C"/>
</svg>
