<svg width="16" height="12" viewBox="0 0 16 12" fill="none" xmlns="http://www.w3.org/2000/svg">
<path d="M1.57534 11.5105C1.42924 11.7448 1.12084 11.8163 0.886513 11.6702C0.652184 11.5241 0.580656 11.2157 0.726753 10.9814L1.57534 11.5105ZM15.4294 10.9833C15.5739 11.2187 15.5003 11.5266 15.265 11.6711C15.0296 11.8156 14.7217 11.7419 14.5772 11.5066L15.4294 10.9833ZM8.97612 1.42871L9.40221 1.16709L8.97612 1.42871ZM7.69965 1.68742L1.57534 11.5105L0.726753 10.9814L6.85106 1.15836L7.69965 1.68742ZM9.40221 1.16709L15.4294 10.9833L14.5772 11.5066L8.55003 1.69033L9.40221 1.16709ZM6.85106 1.15836C7.44066 0.212685 8.8191 0.217401 9.40221 1.16709L8.55003 1.69033C8.35566 1.37377 7.89618 1.3722 7.69965 1.68742L6.85106 1.15836Z" fill="#FCC117"/>
</svg>
