<svg width="24" height="24" viewBox="0 0 24 24" fill="none" xmlns="http://www.w3.org/2000/svg">
<g clip-path="url(#clip0)">
<path d="M19.1028 2.94609C17.2123 1.04751 14.6938 0.00188978 12.011 0.00188978H11.9994C6.59718 -0.108681 1.85773 4.6489 1.96896 10.0492C2.11037 13.8624 5.77879 18.7052 8.63554 22.4257C9.47449 23.4279 10.6969 24 12.0102 24C13.3694 24 14.6315 23.3875 15.4727 22.3196C17.5919 19.686 22.1681 13.3518 22.0299 10.0491C22.03 7.36442 20.9904 4.84187 19.1028 2.94609ZM13.9999 21.1594C13.0311 22.4374 10.9931 22.4396 10.024 21.1616C6.15035 16.2292 3.84374 12.1215 3.84374 10.0491C3.84374 5.54289 7.50236 1.87681 11.9994 1.87681H12.011C16.5017 1.87681 20.1551 5.54293 20.1551 10.0491C20.1551 12.144 17.9116 16.1936 13.9999 21.1594ZM12.0521 14.0164C9.85528 14.0164 8.06801 12.2291 8.06801 10.0323C8.28686 4.74686 15.8182 4.74841 16.0362 10.0324C16.0362 12.2292 14.2489 14.0164 12.0521 14.0164ZM12.0521 7.92308C10.8891 7.92308 9.94288 8.86928 9.94288 10.0323C10.0588 12.8305 14.0459 12.8297 14.1613 10.0323C14.1613 8.86928 13.2152 7.92308 12.0521 7.92308Z" fill="#FCC117"/>
</g>
<defs>
<clipPath id="clip0">
<rect width="24" height="24" fill="white"/>
</clipPath>
</defs>
</svg>
