<svg width="69" height="64" viewBox="0 0 69 64" fill="none" xmlns="http://www.w3.org/2000/svg">
<g filter="url(#filter0_d_361:163)">
<path d="M34.6719 16.9337C26.4601 16.9337 19.7793 23.6145 19.7793 31.8263C19.7793 40.0381 26.4601 46.7189 34.6719 46.7189C42.8836 46.7189 49.5645 40.0381 49.5645 31.8263C49.5645 23.6145 42.8836 16.9337 34.6719 16.9337ZM34.6719 41.9532C29.0879 41.9532 24.5449 37.4103 24.5449 31.8263C24.5449 26.2423 29.0879 21.6993 34.6719 21.6993C40.2559 21.6993 44.7988 26.2423 44.7988 31.8263C44.7988 37.4103 40.2559 41.9532 34.6719 41.9532Z" fill="#D1D0D0"/>
<path d="M62.6172 35.9805C63.9332 35.9805 65 34.9137 65 33.5977V18.1094C65 12.8538 60.7243 8.57812 55.4688 8.57812H51.8515C50.8311 8.57812 49.9245 7.92917 49.5957 6.96305L48.8748 4.84509C47.8883 1.94712 45.1688 0 42.1076 0H26.8849C23.883 0 21.181 1.89708 20.1615 4.72047L19.3367 7.00463C18.9968 7.94573 18.0962 8.57812 17.0956 8.57812H13.5312C8.27572 8.57812 4 12.8538 4 18.1094V45.5117C4 50.7673 8.27572 55.043 13.5312 55.043H55.4688C60.7243 55.043 65 50.7673 65 45.5117C65 44.1957 63.9332 43.1289 62.6172 43.1289C61.3012 43.1289 60.2344 44.1957 60.2344 45.5117C60.2344 48.1395 58.0965 50.2773 55.4688 50.2773H13.5312C10.9035 50.2773 8.76562 48.1395 8.76562 45.5117V18.1094C8.76562 15.4816 10.9035 13.3438 13.5312 13.3438H17.0956C20.0974 13.3438 22.7994 11.4467 23.8189 8.62328L24.6437 6.33912C24.9836 5.39802 25.8842 4.76562 26.8849 4.76562H42.1076C43.128 4.76562 44.0345 5.4147 44.3634 6.3807L45.0843 8.49866C46.0707 11.3966 48.7902 13.3438 51.8515 13.3438H55.4688C58.0965 13.3438 60.2344 15.4816 60.2344 18.1094V33.5977C60.2344 34.9137 61.3012 35.9805 62.6172 35.9805Z" fill="#D1D0D0"/>
</g>
<defs>
<filter id="filter0_d_361:163" x="0" y="0" width="69" height="63.043" filterUnits="userSpaceOnUse" color-interpolation-filters="sRGB">
<feFlood flood-opacity="0" result="BackgroundImageFix"/>
<feColorMatrix in="SourceAlpha" type="matrix" values="0 0 0 0 0 0 0 0 0 0 0 0 0 0 0 0 0 0 127 0" result="hardAlpha"/>
<feOffset dy="4"/>
<feGaussianBlur stdDeviation="2"/>
<feColorMatrix type="matrix" values="0 0 0 0 0 0 0 0 0 0 0 0 0 0 0 0 0 0 0.25 0"/>
<feBlend mode="normal" in2="BackgroundImageFix" result="effect1_dropShadow_361:163"/>
<feBlend mode="normal" in="SourceGraphic" in2="effect1_dropShadow_361:163" result="shape"/>
</filter>
</defs>
</svg>
