<svg width="32" height="29" viewBox="0 0 32 29" fill="none" xmlns="http://www.w3.org/2000/svg">
<path d="M16 28.4697C15.5444 28.4697 15.1052 28.3047 14.7629 28.0049C13.4702 26.8745 12.2239 25.8123 11.1242 24.8752L11.1186 24.8704C7.89476 22.123 5.11083 19.7505 3.17382 17.4133C1.00854 14.8005 0 12.3232 0 9.61694C0 6.98755 0.90161 4.56177 2.53857 2.78613C4.19506 0.989502 6.46801 0 8.93944 0C10.7866 0 12.4782 0.583984 13.9673 1.7356C14.7187 2.31689 15.3999 3.02832 16 3.85815C16.6003 3.02832 17.2812 2.31689 18.0329 1.7356C19.5219 0.583984 21.2136 0 23.0607 0C25.5319 0 27.8051 0.989502 29.4616 2.78613C31.0986 4.56177 31.9999 6.98755 31.9999 9.61694C31.9999 12.3232 30.9916 14.8005 28.8264 17.4131C26.8894 19.7505 24.1057 22.1228 20.8823 24.8699C19.7807 25.8083 18.5324 26.8723 17.2368 28.0054C16.8947 28.3047 16.4553 28.4697 16 28.4697ZM8.93944 1.87451C6.99779 1.87451 5.2141 2.64941 3.9165 4.05664C2.5996 5.48511 1.87426 7.45972 1.87426 9.61694C1.87426 11.8931 2.72021 13.9287 4.61693 16.2173C6.45018 18.4294 9.17698 20.7532 12.3342 23.4438L12.3401 23.4487C13.4438 24.3894 14.695 25.4558 15.9973 26.5945C17.3073 25.4536 18.5605 24.3855 19.6665 23.4434C22.8234 20.7527 25.55 18.4294 27.3832 16.2173C29.2797 13.9287 30.1257 11.8931 30.1257 9.61694C30.1257 7.45972 29.4003 5.48511 28.0834 4.05664C26.7861 2.64941 25.0021 1.87451 23.0607 1.87451C21.6384 1.87451 20.3325 2.32666 19.1794 3.21826C18.1518 4.01318 17.436 5.01807 17.0163 5.72119C16.8005 6.08276 16.4206 6.29858 16 6.29858C15.5793 6.29858 15.1994 6.08276 14.9836 5.72119C14.5642 5.01807 13.8484 4.01318 12.8205 3.21826C11.6675 2.32666 10.3616 1.87451 8.93944 1.87451Z" fill="white"/>
</svg>
