<svg width="24" height="24" viewBox="0 0 24 24" fill="none" xmlns="http://www.w3.org/2000/svg">
<g clip-path="url(#clip0_454:384)">
<path d="M19.1026 2.94609C17.2121 1.04751 14.6935 0.00188978 12.0108 0.00188978H11.9992C6.59693 -0.108681 1.85749 4.6489 1.96872 10.0492C2.11013 13.8624 5.77855 18.7052 8.63529 22.4257C9.47425 23.4279 10.6967 24 12.0099 24C13.3692 24 14.6313 23.3875 15.4724 22.3196C17.5917 19.686 22.1678 13.3518 22.0297 10.0491C22.0297 7.36442 20.9902 4.84187 19.1026 2.94609ZM13.9996 21.1594C13.0308 22.4374 10.9929 22.4396 10.0237 21.1616C6.1501 16.2292 3.84349 12.1215 3.84349 10.0491C3.84349 5.54289 7.50212 1.87681 11.9992 1.87681H12.0108C16.5015 1.87681 20.1549 5.54293 20.1549 10.0491C20.1549 12.144 17.9114 16.1936 13.9996 21.1594ZM12.0519 14.0164C9.85504 14.0164 8.06777 12.2291 8.06777 10.0323C8.28661 4.74686 15.8179 4.74841 16.036 10.0324C16.036 12.2292 14.2487 14.0164 12.0519 14.0164ZM12.0519 7.92308C10.8888 7.92308 9.94264 8.86928 9.94264 10.0323C10.0585 12.8305 14.0457 12.8297 14.1611 10.0323C14.1611 8.86928 13.2149 7.92308 12.0519 7.92308Z" fill="white"/>
</g>
<defs>
<clipPath id="clip0_454:384">
<rect width="24" height="24" fill="white"/>
</clipPath>
</defs>
</svg>
