<svg width="32" height="32" viewBox="0 0 32 32" fill="none" xmlns="http://www.w3.org/2000/svg">
<path d="M19 21V23.5C19 24.163 18.7366 24.7989 18.2678 25.2678C17.7989 25.7366 17.163 26 16.5 26H6.5C5.83696 26 5.20107 25.7366 4.73223 25.2678C4.26339 24.7989 4 24.163 4 23.5V8.5C4 7.83696 4.26339 7.20107 4.73223 6.73223C5.20107 6.26339 5.83696 6 6.5 6H16C17.3806 6 19 7.11937 19 8.5V11" stroke="black" stroke-linecap="round" stroke-linejoin="round"/>
<path d="M21 19.5L24 16L21 12.5" stroke="black" stroke-linecap="round" stroke-linejoin="round"/>
<path d="M13 16L23 16" stroke="black" stroke-linecap="round" stroke-linejoin="round"/>
</svg>
