<svg width="85" height="20" viewBox="0 0 85 20" fill="none" xmlns="http://www.w3.org/2000/svg">
<path d="M0.95 3.61C0.95 2.75 1.2 2.07 1.7 1.57C2.2 1.07 2.88 0.82 3.74 0.82H13.64C13.78 1.04 13.9 1.33 14 1.69C14.12 2.05 14.18 2.43 14.18 2.83C14.18 3.59 14.01 4.13 13.67 4.45C13.35 4.77 12.92 4.93 12.38 4.93H6.05V7.72H12.8C12.94 7.94 13.06 8.23 13.16 8.59C13.28 8.93 13.34 9.3 13.34 9.7C13.34 10.46 13.18 11 12.86 11.32C12.54 11.64 12.11 11.8 11.57 11.8H6.05V14.95H13.76C13.9 15.17 14.02 15.46 14.12 15.82C14.24 16.18 14.3 16.56 14.3 16.96C14.3 17.72 14.13 18.27 13.79 18.61C13.47 18.93 13.04 19.09 12.5 19.09H3.74C2.88 19.09 2.2 18.84 1.7 18.34C1.2 17.84 0.95 17.16 0.95 16.3V3.61ZM26.1596 18.61C25.8796 18.83 25.4696 19.01 24.9296 19.15C24.3896 19.29 23.7796 19.36 23.0996 19.36C22.3196 19.36 21.6396 19.26 21.0596 19.06C20.4996 18.86 20.1096 18.54 19.8896 18.1C19.7096 17.76 19.4896 17.29 19.2296 16.69C18.9896 16.07 18.7296 15.39 18.4496 14.65C18.1696 13.89 17.8796 13.08 17.5796 12.22C17.2796 11.36 16.9896 10.51 16.7096 9.67C16.4496 8.83 16.2096 8.02 15.9896 7.24C15.7696 6.46 15.5896 5.77 15.4496 5.17C15.7296 4.89 16.0996 4.65 16.5596 4.45C17.0396 4.23 17.5596 4.12 18.1196 4.12C18.8196 4.12 19.3896 4.27 19.8296 4.57C20.2896 4.85 20.6296 5.39 20.8496 6.19L22.0196 10.78C22.2396 11.68 22.4496 12.5 22.6496 13.24C22.8496 13.96 22.9996 14.52 23.0996 14.92H23.2496C23.6296 13.44 24.0296 11.8 24.4496 10C24.8696 8.2 25.2496 6.43 25.5896 4.69C25.9296 4.51 26.3096 4.37 26.7296 4.27C27.1696 4.17 27.5896 4.12 27.9896 4.12C28.6896 4.12 29.2796 4.27 29.7596 4.57C30.2396 4.87 30.4796 5.39 30.4796 6.13C30.4796 6.45 30.3996 6.92 30.2396 7.54C30.0996 8.14 29.9096 8.83 29.6696 9.61C29.4496 10.37 29.1796 11.18 28.8596 12.04C28.5596 12.9 28.2496 13.74 27.9296 14.56C27.6096 15.38 27.2896 16.15 26.9696 16.87C26.6696 17.57 26.3996 18.15 26.1596 18.61ZM40.3208 19.48C39.1408 19.48 38.0408 19.32 37.0208 19C36.0208 18.66 35.1408 18.16 34.3808 17.5C33.6408 16.84 33.0508 16.01 32.6108 15.01C32.1908 14.01 31.9808 12.84 31.9808 11.5C31.9808 10.18 32.1908 9.05 32.6108 8.11C33.0508 7.15 33.6208 6.37 34.3208 5.77C35.0208 5.15 35.8208 4.7 36.7208 4.42C37.6208 4.12 38.5408 3.97 39.4808 3.97C40.5408 3.97 41.5008 4.13 42.3608 4.45C43.2408 4.77 43.9908 5.21 44.6108 5.77C45.2508 6.33 45.7408 7 46.0808 7.78C46.4408 8.56 46.6208 9.41 46.6208 10.33C46.6208 11.01 46.4308 11.53 46.0508 11.89C45.6708 12.25 45.1408 12.48 44.4608 12.58L37.0508 13.69C37.2708 14.35 37.7208 14.85 38.4008 15.19C39.0808 15.51 39.8608 15.67 40.7408 15.67C41.5608 15.67 42.3308 15.57 43.0508 15.37C43.7908 15.15 44.3908 14.9 44.8508 14.62C45.1708 14.82 45.4408 15.1 45.6608 15.46C45.8808 15.82 45.9908 16.2 45.9908 16.6C45.9908 17.5 45.5708 18.17 44.7308 18.61C44.0908 18.95 43.3708 19.18 42.5708 19.3C41.7708 19.42 41.0208 19.48 40.3208 19.48ZM39.4808 7.69C39.0008 7.69 38.5808 7.77 38.2208 7.93C37.8808 8.09 37.6008 8.3 37.3808 8.56C37.1608 8.8 36.9908 9.08 36.8708 9.4C36.7708 9.7 36.7108 10.01 36.6908 10.33L41.8208 9.49C41.7608 9.09 41.5408 8.69 41.1608 8.29C40.7808 7.89 40.2208 7.69 39.4808 7.69ZM58.3156 9.76C58.3156 9.14 58.1356 8.69 57.7756 8.41C57.4356 8.11 56.9656 7.96 56.3656 7.96C55.9656 7.96 55.5656 8.01 55.1656 8.11C54.7856 8.21 54.4556 8.36 54.1756 8.56V18.97C53.9756 19.03 53.6556 19.09 53.2156 19.15C52.7956 19.21 52.3556 19.24 51.8956 19.24C51.4556 19.24 51.0556 19.21 50.6956 19.15C50.3556 19.09 50.0656 18.97 49.8256 18.79C49.5856 18.61 49.3956 18.37 49.2556 18.07C49.1356 17.75 49.0756 17.34 49.0756 16.84V7.84C49.0756 7.3 49.1856 6.86 49.4056 6.52C49.6456 6.18 49.9656 5.87 50.3656 5.59C51.0456 5.11 51.8956 4.72 52.9156 4.42C53.9556 4.12 55.1056 3.97 56.3656 3.97C58.6256 3.97 60.3656 4.47 61.5856 5.47C62.8056 6.45 63.4156 7.82 63.4156 9.58V18.97C63.2156 19.03 62.8956 19.09 62.4556 19.15C62.0356 19.21 61.5956 19.24 61.1356 19.24C60.6956 19.24 60.2956 19.21 59.9356 19.15C59.5956 19.09 59.3056 18.97 59.0656 18.79C58.8256 18.61 58.6356 18.37 58.4956 18.07C58.3756 17.75 58.3156 17.34 58.3156 16.84V9.76ZM71.6659 13.99C71.6659 14.51 71.8259 14.88 72.1459 15.1C72.4859 15.32 72.9559 15.43 73.5559 15.43C73.8559 15.43 74.1659 15.41 74.4859 15.37C74.8059 15.31 75.0859 15.24 75.3259 15.16C75.5059 15.38 75.6559 15.63 75.7759 15.91C75.9159 16.17 75.9859 16.49 75.9859 16.87C75.9859 17.63 75.6959 18.25 75.1159 18.73C74.5559 19.21 73.5559 19.45 72.1159 19.45C70.3559 19.45 68.9959 19.05 68.0359 18.25C67.0959 17.45 66.6259 16.15 66.6259 14.35V1.51C66.8459 1.45 67.1559 1.39 67.5559 1.33C67.9759 1.25 68.4159 1.21 68.8759 1.21C69.7559 1.21 70.4359 1.37 70.9159 1.69C71.4159 1.99 71.6659 2.64 71.6659 3.64V5.56H75.5959C75.7159 5.78 75.8259 6.06 75.9259 6.4C76.0459 6.72 76.1059 7.08 76.1059 7.48C76.1059 8.18 75.9459 8.69 75.6259 9.01C75.3259 9.31 74.9159 9.46 74.3959 9.46H71.6659V13.99ZM84.2176 18.88C83.9976 18.94 83.6476 19 83.1676 19.06C82.7076 19.12 82.2476 19.15 81.7876 19.15C81.3276 19.15 80.9176 19.11 80.5576 19.03C80.2176 18.97 79.9276 18.85 79.6876 18.67C79.4476 18.49 79.2676 18.24 79.1476 17.92C79.0276 17.6 78.9676 17.18 78.9676 16.66V0.82C79.1876 0.779999 79.5376 0.729999 80.0176 0.67C80.4976 0.59 80.9576 0.55 81.3976 0.55C81.8576 0.55 82.2576 0.59 82.5976 0.67C82.9576 0.729999 83.2576 0.849999 83.4976 1.03C83.7376 1.21 83.9176 1.46 84.0376 1.78C84.1576 2.1 84.2176 2.52 84.2176 3.04V18.88Z" fill="#FCC117"/>
</svg>
