<svg width="28" height="28" viewBox="0 0 28 28" fill="none" xmlns="http://www.w3.org/2000/svg">
<g filter="url(#filter0_i)">
<path d="M24.2861 1.93335H14.7727C13.209 1.93335 11.9307 3.22877 11.9307 4.79224V7.31879C11.9307 7.71032 12.2481 8.02758 12.6397 8.02758C13.0312 8.02758 13.3485 7.71032 13.3485 7.31879V4.79224C13.3505 4.00385 13.9843 3.36246 14.7727 3.35115H24.2861C25.068 3.35115 25.6833 4.01051 25.6833 4.79224V23.1235C25.6926 23.9006 25.0702 24.538 24.2932 24.5471H14.7729C13.9876 24.5442 13.3518 23.9085 13.3485 23.1235V20.6497C13.3485 20.2579 13.0312 19.9407 12.6397 19.9407C12.2481 19.9407 11.9307 20.2579 11.9307 20.6497V23.1235C11.9349 24.6914 13.2048 25.9611 14.7727 25.9649H24.2861C25.8467 25.9591 27.1073 24.6887 27.1011 23.1279V4.79224C27.1011 3.22877 25.8498 1.93335 24.2861 1.93335Z" fill="white"/>
<path d="M3.28484 14.6934H20.0622C20.4537 14.6934 20.7712 14.3759 20.7712 13.9844C20.7712 13.5931 20.4537 13.2756 20.0622 13.2756H3.12743L6.76451 9.07143C7.02102 8.77323 6.98909 8.32406 6.69378 8.06488C6.39914 7.80726 5.95151 7.83719 5.69411 8.13162V8.13206L1.10969 13.4124C0.940752 13.5514 0.845641 13.7607 0.851849 13.9791C0.8585 14.1979 0.965805 14.4014 1.14295 14.53L5.72781 19.1149C6.00472 19.3918 6.45367 19.3918 6.73014 19.1149C7.0035 18.8466 7.00772 18.4081 6.73967 18.1347C6.73657 18.1318 6.73347 18.1287 6.73014 18.1256L3.28484 14.6934Z" fill="white"/>
</g>
<defs>
<filter id="filter0_i" x="0" y="0" width="28" height="32" filterUnits="userSpaceOnUse" color-interpolation-filters="sRGB">
<feFlood flood-opacity="0" result="BackgroundImageFix"/>
<feBlend mode="normal" in="SourceGraphic" in2="BackgroundImageFix" result="shape"/>
<feColorMatrix in="SourceAlpha" type="matrix" values="0 0 0 0 0 0 0 0 0 0 0 0 0 0 0 0 0 0 127 0" result="hardAlpha"/>
<feOffset dy="4"/>
<feGaussianBlur stdDeviation="2"/>
<feComposite in2="hardAlpha" operator="arithmetic" k2="-1" k3="1"/>
<feColorMatrix type="matrix" values="0 0 0 0 0.47451 0 0 0 0 0.47451 0 0 0 0 0.47451 0 0 0 0.34 0"/>
<feBlend mode="normal" in2="shape" result="effect1_innerShadow"/>
</filter>
</defs>
</svg>
