<svg width="29" height="28" viewBox="0 0 29 28" fill="none" xmlns="http://www.w3.org/2000/svg">
<g filter="url(#filter0_i)">
<path d="M4.44544 17.6839C4.83595 17.2934 4.83594 16.6602 4.4454 16.2697C4.05486 15.8792 3.4217 15.8792 3.03119 16.2697L4.44544 17.6839ZM1.09265 23.8116L2.0118 23.4177L1.09265 23.8116ZM14.4803 16.1768C14.0385 15.8454 13.4117 15.935 13.0803 16.3768C12.749 16.8186 12.8385 17.4454 13.2803 17.7768L14.4803 16.1768ZM15.9938 24.282L15.3624 23.5065L15.9938 24.282ZM3.03119 16.2697C2.22602 17.0749 1.37159 18.6252 0.794059 20.0521C0.498022 20.7835 0.25231 21.5369 0.116469 22.2114C0.0485594 22.5486 0.00368571 22.8875 0.000215054 23.2068C-0.00313258 23.5148 0.0307593 23.8724 0.173508 24.2055L2.0118 23.4177C2.02226 23.4421 1.99828 23.396 2.0001 23.2286C2.00179 23.0725 2.02513 22.8643 2.0771 22.6062C2.18103 22.0902 2.38178 21.4601 2.64796 20.8025C3.19484 19.4513 3.92782 18.2015 4.44544 17.6839L3.03119 16.2697ZM0.173508 24.2055C0.366362 24.6555 0.767793 25.0042 1.11337 25.2522C1.4966 25.5272 1.97909 25.7946 2.52363 26.0409C3.61536 26.5346 5.04022 26.9813 6.61088 27.2335C9.72334 27.7332 13.6273 27.4982 16.6252 25.0575L15.3624 23.5065C12.9903 25.4378 9.76359 25.714 6.92792 25.2587C5.52453 25.0334 4.27096 24.6361 3.3478 24.2186C2.8849 24.0092 2.52583 23.8041 2.27937 23.6273C1.99527 23.4234 1.97889 23.3409 2.0118 23.4177L0.173508 24.2055ZM17.5489 23.0639C17.5058 21.9715 17.1952 20.6174 16.6963 19.3839C16.206 18.1715 15.4715 16.9202 14.4803 16.1768L13.2803 17.7768C13.8426 18.1985 14.4051 19.0529 14.8422 20.1337C15.2707 21.1934 15.518 22.32 15.5504 23.1427L17.5489 23.0639ZM16.6252 25.0575C17.1967 24.5922 17.5807 23.8725 17.5489 23.0639L15.5504 23.1427C15.5547 23.2521 15.5033 23.3918 15.3624 23.5065L16.6252 25.0575Z" fill="white"/>
<path d="M25.7242 9.12151C25.2824 8.79014 24.6556 8.87968 24.3242 9.32151C23.9929 9.76334 24.0824 10.3901 24.5242 10.7215L25.7242 9.12151ZM19.7071 18.627C19.1573 18.5747 18.6692 18.9779 18.6168 19.5277C18.5644 20.0775 18.9677 20.5657 19.5175 20.618L19.7071 18.627ZM27.9737 15.9173L28.9697 15.8274L27.9737 15.9173ZM27.3293 17.2724L27.9119 18.0851L27.3293 17.2724ZM28.9697 15.8274C28.8671 14.6915 28.5051 13.3722 27.9679 12.1822C27.4381 11.0084 26.6845 9.84168 25.7242 9.12151L24.5242 10.7215C25.0998 11.1532 25.6796 11.974 26.145 13.005C26.6031 14.0198 26.8979 15.1224 26.9778 16.0072L28.9697 15.8274ZM26.7466 16.4597C25.2538 17.53 22.5433 18.8971 19.7071 18.627L19.5175 20.618C23.0467 20.9541 26.2436 19.2813 27.9119 18.0851L26.7466 16.4597ZM26.9778 16.0072C26.9914 16.1579 26.9223 16.3337 26.7466 16.4597L27.9119 18.0851C28.6098 17.5848 29.0527 16.7473 28.9697 15.8274L26.9778 16.0072Z" fill="white"/>
<circle cx="9.03019" cy="11.0238" r="3.85051" stroke="white" stroke-width="2"/>
<circle cx="20.0536" cy="4.85051" r="3.85051" stroke="white" stroke-width="2"/>
</g>
<defs>
<filter id="filter0_i" x="0" y="0" width="28.9795" height="31.4486" filterUnits="userSpaceOnUse" color-interpolation-filters="sRGB">
<feFlood flood-opacity="0" result="BackgroundImageFix"/>
<feBlend mode="normal" in="SourceGraphic" in2="BackgroundImageFix" result="shape"/>
<feColorMatrix in="SourceAlpha" type="matrix" values="0 0 0 0 0 0 0 0 0 0 0 0 0 0 0 0 0 0 127 0" result="hardAlpha"/>
<feOffset dy="4"/>
<feGaussianBlur stdDeviation="2"/>
<feComposite in2="hardAlpha" operator="arithmetic" k2="-1" k3="1"/>
<feColorMatrix type="matrix" values="0 0 0 0 0.475 0 0 0 0 0.475 0 0 0 0 0.475 0 0 0 0.34 0"/>
<feBlend mode="normal" in2="shape" result="effect1_innerShadow"/>
</filter>
</defs>
</svg>
