<svg width="25" height="26" viewBox="0 0 25 26" fill="none" xmlns="http://www.w3.org/2000/svg">
<path d="M1 13L11.5581 1.76068C11.9477 1.34593 12.6044 1.33945 13.0021 1.74642L24 13" stroke="#6984FC" stroke-width="2" stroke-linecap="round" stroke-linejoin="round"/>
<mask id="path-2-inside-1" fill="white">
<path fill-rule="evenodd" clip-rule="evenodd" d="M3.3125 13.1558V20.9173C3.3125 23.6787 5.55108 25.9173 8.3125 25.9173H16.8112C19.5726 25.9173 21.8112 23.6787 21.8112 20.9173V13.1558H3.3125Z"/>
</mask>
<path d="M3.3125 13.1558V11.1558C2.20793 11.1558 1.3125 12.0512 1.3125 13.1558H3.3125ZM21.8112 13.1558H23.8112C23.8112 12.0512 22.9158 11.1558 21.8112 11.1558V13.1558ZM5.3125 20.9173V13.1558H1.3125V20.9173H5.3125ZM8.3125 23.9173C6.65565 23.9173 5.3125 22.5741 5.3125 20.9173H1.3125C1.3125 24.7833 4.44651 27.9173 8.3125 27.9173V23.9173ZM16.8112 23.9173H8.3125V27.9173H16.8112V23.9173ZM19.8112 20.9173C19.8112 22.5741 18.4681 23.9173 16.8112 23.9173V27.9173C20.6772 27.9173 23.8112 24.7833 23.8112 20.9173H19.8112ZM19.8112 13.1558V20.9173H23.8112V13.1558H19.8112ZM21.8112 11.1558H3.3125V15.1558H21.8112V11.1558Z" fill="#6984FC" mask="url(#path-2-inside-1)"/>
</svg>
