<svg width="31" height="29" viewBox="0 0 31 29" fill="none" xmlns="http://www.w3.org/2000/svg">
<g filter="url(#filter0_i)">
<path d="M1 12.5177V26.7209L5.58459 23.7544H16.1921C18.5653 23.6106 19.5002 21.6868 19.5182 20.6081C19.5481 18.8102 19.5901 14.5672 19.5182 11.9783C19.4462 9.38935 17.0311 8.95188 15.7426 9.01181H4.14629C1.77309 9.01181 1.05993 11.3491 1 12.5177Z" stroke="white" stroke-width="2"/>
<path d="M5.85449 14.2257H12.7763" stroke="white" stroke-width="2"/>
<path d="M5.85449 18.5406H9.89972" stroke="white" stroke-width="2"/>
<path d="M12.0009 6.94568V3.74474C11.9734 2.86927 12.5935 1.10191 15.2932 1.03625C17.9928 0.970594 23.5513 1.0089 25.9931 1.03625C27.0357 0.981539 29.1373 1.54513 29.2031 4.2372C29.269 6.92927 29.2306 14.0042 29.2031 17.2051L25.417 14.3325H22.8655" stroke="white" stroke-width="2"/>
</g>
<defs>
<filter id="filter0_i" x="0" y="0" width="30.2393" height="32.5591" filterUnits="userSpaceOnUse" color-interpolation-filters="sRGB">
<feFlood flood-opacity="0" result="BackgroundImageFix"/>
<feBlend mode="normal" in="SourceGraphic" in2="BackgroundImageFix" result="shape"/>
<feColorMatrix in="SourceAlpha" type="matrix" values="0 0 0 0 0 0 0 0 0 0 0 0 0 0 0 0 0 0 127 0" result="hardAlpha"/>
<feOffset dy="4"/>
<feGaussianBlur stdDeviation="2"/>
<feComposite in2="hardAlpha" operator="arithmetic" k2="-1" k3="1"/>
<feColorMatrix type="matrix" values="0 0 0 0 0.475 0 0 0 0 0.475 0 0 0 0 0.475 0 0 0 0.34 0"/>
<feBlend mode="normal" in2="shape" result="effect1_innerShadow"/>
</filter>
</defs>
</svg>
